<svg width="1920" height="1080" viewBox="0 0 1920 1080" fill="none" xmlns="http://www.w3.org/2000/svg">
<path d="M781 74.5C781 220.027 663.027 338 517.5 338C371.973 338 254 220.027 254 74.5C254 -71.027 371.973 -189 517.5 -189C663.027 -189 781 -71.027 781 74.5ZM401.556 74.5C401.556 138.534 453.466 190.444 517.5 190.444C581.534 190.444 633.444 138.534 633.444 74.5C633.444 10.4661 581.534 -41.4436 517.5 -41.4436C453.466 -41.4436 401.556 10.4661 401.556 74.5Z" fill="#FFE2D2"/>
<path d="M1625 1024C1625 1291.31 1408.31 1508 1141 1508C873.694 1508 657 1291.31 657 1024C657 756.694 873.694 540 1141 540C1408.31 540 1625 756.694 1625 1024ZM928.033 1024C928.033 1141.62 1023.38 1236.97 1141 1236.97C1258.62 1236.97 1353.97 1141.62 1353.97 1024C1353.97 906.382 1258.62 811.033 1141 811.033C1023.38 811.033 928.033 906.382 928.033 1024Z" fill="#6228D6" fill-opacity="0.1"/>
<path d="M254 576C254 692.532 159.532 787 43 787C-73.5321 787 -168 692.532 -168 576C-168 459.468 -73.5321 365 43 365C159.532 365 254 459.468 254 576ZM-49.8429 576C-49.8429 627.276 -8.2757 668.843 43 668.843C94.2757 668.843 135.843 627.276 135.843 576C135.843 524.724 94.2757 483.157 43 483.157C-8.2757 483.157 -49.8429 524.724 -49.8429 576Z" fill="#6228D6" fill-opacity="0.1"/>
<path d="M2121 165C2121 334.551 1983.55 472 1814 472C1644.45 472 1507 334.551 1507 165C1507 -4.55142 1644.45 -142 1814 -142C1983.55 -142 2121 -4.55142 2121 165ZM1678.92 165C1678.92 239.605 1739.4 300.084 1814 300.084C1888.6 300.084 1949.08 239.605 1949.08 165C1949.08 90.3951 1888.6 29.9158 1814 29.9158C1739.4 29.9158 1678.92 90.3951 1678.92 165Z" fill="#FFE2D2"/>
<path d="M2041.17 377.549C1881.93 438.191 1475.85 408.825 1226.44 205.24C1044.66 56.8554 915.264 -283.936 1108.67 -544.961C1276.12 -770.967 1692.37 -894.592 1805.86 -547.691C1919.35 -200.79 1665.14 -80.4235 1454.52 -66.7839C1151.55 -47.1637 849.308 -284.917 766.81 -663.745C693.394 -1000.87 773.278 -1160.44 751.411 -1157.74" stroke="#FF914D" stroke-width="4" stroke-miterlimit="1.5" stroke-linecap="round" stroke-linejoin="round"/>
<path d="M-118.723 -2.21452C51.6513 -5.14403 423.597 160.447 588.998 436.661C709.551 637.982 715.458 1002.46 444.873 1182.25C210.59 1337.91 -222.901 1312.76 -211.771 947.935C-200.641 583.112 79.3409 556.277 282.065 615.01C573.677 699.495 777.157 1025.8 726.035 1410.12C680.542 1752.13 551.191 1875.07 572.677 1879.95" stroke="#FF914D" stroke-width="4" stroke-miterlimit="1.5" stroke-linecap="round" stroke-linejoin="round"/>
</svg>
