<svg width="223" height="61" viewBox="0 0 223 61" fill="none" xmlns="http://www.w3.org/2000/svg">
<path d="M120.519 48.3466C117.572 48.3466 114.92 47.7399 112.563 46.5266C110.24 45.2786 108.42 43.5626 107.103 41.3786C105.786 39.1946 105.127 36.7159 105.127 33.9426C105.127 31.1692 105.786 28.6906 107.103 26.5066C108.42 24.3226 110.24 22.6239 112.563 21.4106C114.92 20.1626 117.572 19.5386 120.519 19.5386C123.466 19.5386 126.1 20.1626 128.423 21.4106C130.746 22.6239 131 22.5 132.5 24.5C133.817 26.684 141.5 22.5066 143 26C131.5 24 125.5 44.5 134.5 42.5C133.183 44.684 130.746 45.2786 128.423 46.5266C126.1 47.7399 123.466 48.3466 120.519 48.3466ZM120.519 41.6906C122.599 41.6906 124.298 40.9972 125.615 39.6106C126.967 38.1892 127.643 36.2999 127.643 33.9426C127.643 31.5852 126.967 29.7132 125.615 28.3266C124.298 26.9052 122.599 26.1946 120.519 26.1946C118.439 26.1946 116.723 26.9052 115.371 28.3266C114.019 29.7132 113.343 31.5852 113.343 33.9426C113.343 36.2999 114.019 38.1892 115.371 39.6106C116.723 40.9972 118.439 41.6906 120.519 41.6906Z" fill="white"/>
<path d="M4.73788 11.5307H13.1619V41.0667H31.4139V47.9307H4.73788V11.5307ZM48.6576 48.3467C45.7109 48.3467 43.0589 47.74 40.7016 46.5267C38.3789 45.2787 36.5589 43.5627 35.2416 41.3787C33.9242 39.1947 33.2656 36.716 33.2656 33.9427C33.2656 31.1693 33.9242 28.6907 35.2416 26.5067C36.5589 24.3227 38.3789 22.624 40.7016 21.4107C43.0589 20.1627 45.7109 19.5387 48.6576 19.5387C51.6042 19.5387 54.2389 20.1627 56.5616 21.4107C58.8842 22.624 60.7042 24.3227 62.0216 26.5067C63.3389 28.6907 63.9976 31.1693 63.9976 33.9427C63.9976 36.716 63.3389 39.1947 62.0216 41.3787C60.7042 43.5627 58.8842 45.2787 56.5616 46.5267C54.2389 47.74 51.6042 48.3467 48.6576 48.3467ZM48.6576 41.6907C50.7376 41.6907 52.4362 40.9973 53.7536 39.6107C55.1056 38.1893 55.7816 36.3 55.7816 33.9427C55.7816 31.5853 55.1056 29.7133 53.7536 28.3267C52.4362 26.9053 50.7376 26.1947 48.6576 26.1947C46.5776 26.1947 44.8616 26.9053 43.5096 28.3267C42.1576 29.7133 41.4816 31.5853 41.4816 33.9427C41.4816 36.3 42.1576 38.1893 43.5096 39.6107C44.8616 40.9973 46.5776 41.6907 48.6576 41.6907ZM85.9558 19.5387C88.5558 19.5387 90.9131 20.1453 93.0278 21.3587C95.1771 22.5373 96.8584 24.2187 98.0718 26.4027C99.2851 28.552 99.8918 31.0653 99.8918 33.9427C99.8918 36.82 99.2851 39.3507 98.0718 41.5347C96.8584 43.684 95.1771 45.3653 93.0278 46.5787C90.9131 47.7573 88.5558 48.3467 85.9558 48.3467C82.1078 48.3467 79.1784 47.1333 77.1678 44.7067V47.9307H69.4198V9.34666H77.5318V22.9187C79.5771 20.6653 82.3851 19.5387 85.9558 19.5387ZM84.5518 41.6907C86.6318 41.6907 88.3304 40.9973 89.6478 39.6107C90.9998 38.1893 91.6758 36.3 91.6758 33.9427C91.6758 31.5853 90.9998 29.7133 89.6478 28.3267C88.3304 26.9053 86.6318 26.1947 84.5518 26.1947C82.4718 26.1947 80.7558 26.9053 79.4038 28.3267C78.0864 29.7133 77.4278 31.5853 77.4278 33.9427C77.4278 36.3 78.0864 38.1893 79.4038 39.6107C80.7558 40.9973 82.4718 41.6907 84.5518 41.6907Z" fill="white"/>
<g clip-path="url(#clip0_1_8334)">
<path d="M217.325 21.6016C215.55 21.5828 213.782 21.6667 212.062 22.0089C208.501 22.718 205.294 24.3898 202.079 26.0297C199.15 27.5283 196.467 29.434 193.492 30.8405C190.78 32.1163 187.784 32.7832 184.814 33.1105C181.418 33.4907 177.917 33.6938 174.506 33.5608C171.059 33.4278 167.968 32.4741 164.623 31.8139C161.403 31.1892 158.135 30.7378 154.885 30.2334C152.091 32.3796 149.217 35.007 148.22 37.6815C148.22 37.6815 148.093 40.2681 149.191 40.1555C150.281 40.0465 156.788 37.4071 166.18 39.9535C166.18 39.9535 168.212 40.3474 172.186 39.5041C176.152 38.6644 185.091 39.5296 187.429 39.807C189.775 40.0809 192.636 40.1605 200.926 36.6269C209.216 33.0934 210.586 30.2068 214.852 29.1655C219.118 28.1242 221.958 26.5725 219.383 23.3332C219.379 23.3261 218.52 22.6143 217.325 21.6016Z" fill="#EC9936"/>
<path opacity="0.55" d="M209.882 29.1626C209.903 27.7402 210.356 25.2387 211.579 24.2345C213.13 22.9615 215.662 22.0572 217.977 22.1435C217.775 21.97 217.563 21.793 217.333 21.5982C215.558 21.5794 213.79 21.6633 212.069 22.0055C208.509 22.7146 205.301 24.3864 202.087 26.0263C199.158 27.5249 196.475 29.4306 193.5 30.8371C190.788 32.1129 187.792 32.7799 184.822 33.1071C181.426 33.4873 177.924 33.6904 174.513 33.5574C171.067 33.4244 167.975 32.4707 164.631 31.8105C161.403 31.1893 158.136 30.738 154.886 30.2335C152.092 32.3797 149.217 35.0071 148.22 37.6817C148.22 37.6817 148.169 38.775 148.435 39.5077C148.442 39.5041 148.453 39.5077 148.46 39.5041C149.674 39.5721 150.882 38.6104 151.939 38.1474C152.995 37.6845 154.016 37.3101 155.157 37.1055C156.756 36.8234 158.539 36.7502 160.019 37.4623C160.717 37.7953 160.92 38.4005 160.807 38.9773C161.69 39.0592 162.623 39.1871 163.592 39.3682C164.462 37.833 166.776 38.7402 168.186 38.6845C169.812 38.6182 171.279 38.428 172.879 38.0928C173.778 37.9023 174.581 37.7683 175.496 37.8962C176.046 37.9673 176.448 38.509 176.616 38.9903C176.634 39.0434 176.651 39.0965 176.672 39.1567C177.563 39.1466 178.49 39.1719 179.409 39.2008C179.442 39.0876 179.481 38.9708 179.546 38.8682C180.069 37.9379 181.266 37.7582 182.194 38.1267C182.889 38.3996 183.522 38.8352 183.892 39.4724C185.453 39.5972 186.745 39.7324 187.444 39.8178C187.934 39.8747 188.448 39.9281 189.027 39.932C190.102 38.6304 191.38 38.7197 192.986 38.3809C194.863 37.9787 196.341 36.2209 198.166 35.5178C199.326 35.0656 200.099 36.0144 200.097 36.9946C200.371 36.885 200.656 36.7614 200.94 36.6377C201.833 36.2561 202.641 35.8815 203.385 35.521C203.089 35.0679 202.978 34.5229 203.201 33.9179C203.446 33.2493 204.289 33.0339 204.689 32.5706C205.228 31.9411 205.919 31.4214 206.609 31.9172C207.062 32.2394 207.383 32.6713 207.714 33.1068C208.591 32.5482 209.339 32.0356 210.037 31.5654C209.942 30.5887 209.863 30.1251 209.882 29.1626Z" fill="#DB8C36"/>
<path d="M201.243 33.5662C202.213 32.8378 203.504 32.3998 204.525 31.8838C206.743 30.7564 208.232 28.9668 210.069 27.3579C212.625 25.1089 215.146 22.3044 218.99 23.3081C219.174 23.3577 219.344 23.4144 219.5 23.4782C219.465 23.4251 219.426 23.3827 219.387 23.3225C219.387 23.3225 210.919 16.2934 210.177 14.9766C209.438 13.6669 203.214 8.79771 197.053 9.07709C195.874 9.13299 194.922 9.0935 194.216 9.02938C193.01 8.9225 191.794 9.11993 190.702 9.65359C189.004 10.4877 186.902 11.9903 186.84 14.3858C186.84 14.3858 182.059 19.0715 180.035 19.8381C178.008 20.6154 173.105 21.2847 170.789 21.4815C168.47 21.6712 162.695 24.1234 160.979 25.7608C159.278 27.4087 150.31 32.382 148.267 37.5612C148.281 37.5541 148.295 37.547 148.313 37.547C151.512 36.8413 154.815 35.8277 158.126 36.2578C161.816 36.7378 164.986 38.1728 168.819 37.6726C169.036 37.6444 169.22 37.6587 169.391 37.6977C172.087 37.3738 174.788 36.8623 177.474 36.4641C180.082 36.0694 182.248 36.6439 184.817 37.0099C190.255 37.7775 195.924 35.9869 200.799 33.7075C200.948 33.6333 201.098 33.5944 201.243 33.5662Z" fill="#FAC64C"/>
<path opacity="0.55" d="M219.38 23.3262C219.38 23.3262 210.912 16.2971 210.17 14.9803C209.431 13.6706 203.207 8.8014 197.045 9.08077C195.866 9.13668 194.915 9.09718 194.209 9.03307C193.002 8.92618 191.787 9.12361 190.695 9.65727C188.997 10.4913 186.895 11.9939 186.833 14.3895C186.833 14.3895 186.815 14.4072 186.797 14.4249C188.898 15.4204 191.698 16.3421 194.744 16.9561C198.021 17.6234 201.852 19.1543 203.949 20.7868C206.081 22.4371 209.321 27.1028 209.63 27.7258C209.769 27.5949 209.912 27.4711 210.051 27.3403C212.608 25.0913 215.128 22.2868 218.972 23.2905C219.156 23.3402 219.326 23.3969 219.482 23.4607C219.457 23.4288 219.422 23.3757 219.38 23.3262Z" fill="#C2664C"/>
<path d="M219.38 23.326C219.38 23.326 210.912 16.297 210.17 14.9802C209.431 13.6705 203.206 8.80129 197.045 9.08066C195.866 9.13657 194.915 9.09707 194.209 9.03295C193.002 8.92607 191.787 9.1235 190.694 9.65716C189.21 10.3852 187.408 11.6332 186.944 13.5402C187.84 13.9512 188.711 14.3834 189.708 14.5857C191.25 14.8874 192.811 15.1184 194.34 15.4802C196.811 16.062 199.148 16.7464 201.396 17.9331C203.726 19.1589 205.983 20.1121 207.709 22.1584C208.93 23.617 209.809 25.2983 210.325 27.1068C212.79 24.9038 215.27 22.3222 218.982 23.294C219.167 23.3436 219.337 23.4003 219.493 23.4641C219.457 23.4287 219.422 23.3756 219.38 23.326Z" fill="#F89945"/>
<path d="M211.047 19.9631C209.643 19.5483 208.238 19.2219 207.107 18.2304C205.34 16.6901 203.932 14.9094 201.758 13.8713C199.65 12.8615 197.419 13.2105 195.164 13.2091C192.363 13.2145 190.34 12.4985 188.475 11.1386C187.766 11.7822 187.186 12.5816 186.951 13.5545C187.847 13.9655 188.718 14.3977 189.715 14.6C191.258 14.9017 192.819 15.1327 194.347 15.4945C196.819 16.0763 199.155 16.7607 201.403 17.9474C203.733 19.1732 205.99 20.1264 207.716 22.1727C208.937 23.6313 209.816 25.3126 210.333 27.1211C211.513 26.0674 212.69 24.9357 214.008 24.1404C213.188 22.5794 212.741 20.4631 211.047 19.9631Z" fill="#E2762E"/>
<path d="M213.643 27.3565C213.991 27.4841 214.482 27.2579 214.837 27.1697C215.232 27.0709 215.609 26.9543 215.989 26.8095C216.42 26.6399 217.451 26.2336 217.479 25.6639C217.507 24.9703 216.432 24.9839 215.991 24.9907C215.295 25.0009 214.691 25.1597 214.075 25.5097C213.619 25.7712 212.946 26.2733 212.954 26.843C212.961 27.4658 213.902 27.3956 214.347 27.2543L213.643 27.3565Z" fill="#B15631"/>
<path opacity="0.55" d="M195.568 12.056C196.072 12.0528 196.699 12.2089 197.27 12.3578C197.983 12.5423 198.661 12.5675 199.399 12.5714C199.492 12.5432 199.627 12.4583 199.645 12.3699C199.813 12.2603 199.864 11.9879 199.808 11.8038C199.979 10.9158 198.984 10.4481 198.144 10.2388C197.548 10.0934 196.959 10.0152 196.331 9.96524C195.841 9.92602 195.014 9.83352 194.601 10.0916C194.374 10.0454 193.748 10.2503 193.658 10.4626C193.409 10.5686 193.293 11.1205 193.398 11.386C193.521 11.7045 193.925 11.8215 194.237 11.9137C195.024 12.1406 195.568 12.056 195.568 12.056Z" fill="#F89945"/>
<path opacity="0.55" d="M201.97 13.0683C202.353 13.1782 203.071 13.6953 203.457 13.3098C203.856 12.8996 203.309 12.4039 202.954 12.2444C202.632 12.0956 201.675 11.8827 201.495 12.3249C201.269 12.8521 201.551 13.1176 201.97 13.0683Z" fill="#F89945"/>
<path opacity="0.55" d="M208.53 16.9856C208.909 17.1415 211.379 19.4536 211.524 18.1374C211.58 17.6243 210.926 17.0755 210.641 16.6967C210.263 16.1869 209.807 15.8045 209.248 15.5175C208.819 15.2979 208.521 15.3579 208.08 15.4354C207.65 15.5166 207.107 15.4242 207.26 16.0719C207.472 16.9814 207.903 16.7233 208.53 16.9856Z" fill="#F89945"/>
<path opacity="0.55" d="M214.781 20.6412C215.11 20.9988 215.447 21.7138 215.065 22.124C214.115 23.1426 212.719 20.5091 212.432 19.8047C212.372 19.6667 212.333 19.5534 212.359 19.3907C212.565 19.3766 212.871 19.3308 213.055 19.4689C213.281 19.6389 214.365 20.1774 214.781 20.6412Z" fill="#F89945"/>
<path d="M205.674 25.0129C205.256 24.7791 205.101 24.5915 205.004 24.1632C204.917 23.7563 205.122 23.2752 204.726 22.9777C204.788 21.9763 202.595 20.9736 201.737 20.7643C200.506 20.4663 199.535 20.8691 198.348 21.0878C197.339 21.2712 196.837 20.9206 196.806 19.9829C196.76 19.9793 196.717 19.9651 196.671 19.9615C196.703 19.9191 196.728 19.8802 196.761 19.8378C196.729 19.774 196.679 19.7811 196.644 19.728C196.667 19.3812 196.457 18.7619 196.142 18.5741C195.848 17.6433 194.33 17.3381 193.472 17.1819C192.887 17.0754 192.166 17.0537 191.562 17.1241C190.859 17.2086 190.476 17.7604 189.847 17.9228C188.898 18.1735 188.961 16.1742 187.973 15.703C187.084 15.2708 185.603 15.3265 184.658 15.5665C183.3 15.9054 182.316 16.7293 181.504 17.847C180.678 18.9894 179.536 19.5478 178.168 19.0269C176.956 18.5697 176.061 18.6434 175.087 19.577C174.099 20.5177 173.167 20.8037 171.769 20.7392C170.651 20.6854 169.552 20.4194 168.405 20.3798C166.726 20.3222 165.865 20.7321 164.688 21.8637C163.51 22.9953 162.552 24.3536 161.403 25.4887C160.39 26.486 159.136 26.6055 157.836 26.7215C155.925 26.8938 154.753 27.5902 153.564 29.0898C153.017 29.7759 152.9 30.4694 152.626 31.276C152.284 32.2312 152.382 33.1796 151.732 33.9966C151.481 34.3857 150.034 34.8837 149.216 35.1486C148.789 35.2899 148.338 35.4524 147.978 35.7282C147.792 35.8732 147.678 36.0182 147.588 36.2305C147.495 36.4179 147.352 36.5771 147.27 36.7681C147.108 37.1396 147.005 37.7375 147.181 38.1622C147.283 38.4029 147.612 38.5128 147.853 38.5696C148.19 38.6405 148.549 38.5594 148.876 38.4676C149.488 38.2875 150.082 38.0012 150.634 37.6831C152.09 36.8453 153.082 35.9118 154.778 35.4846C156.978 34.9304 160.378 35.2898 161.328 37.686C162.309 40.1812 158.838 42.8224 160.886 45.106C161.779 46.1009 163.503 45.748 163.794 44.3505C164.092 42.9494 162.729 42.2055 162.394 40.9951C162.063 39.8095 162.305 38.2421 163.493 37.7227C164.667 37.2103 165.691 37.6638 166.859 37.7813C168.296 37.9237 169.938 37.4788 171.377 37.2497C172.216 37.1157 173.061 36.9783 173.893 36.8124C174.508 36.6925 175.315 36.371 175.943 36.474C177.025 36.6516 177.831 38.1842 177.211 39.1711C176.531 40.2499 175.253 41.1055 175.973 42.5567C176.711 44.0433 179.73 43.8152 180.012 42.0956C180.206 40.9315 178.528 40.053 178.41 38.8321C178.265 37.2539 180.083 37.1806 181.244 37.2132C182.404 37.2457 183.524 37.6604 184.319 38.5455C185.018 39.328 185.83 40.2131 185.488 41.186C185.131 42.219 183.719 44.0582 184.673 45.0142C185.412 45.7506 186.907 45.564 187.663 44.9063C188.54 44.1354 187.446 42.1638 187.341 41.1835C187.192 39.7751 187.893 39.4005 189.185 38.6794C190.225 38.0926 191.518 38.0686 192.635 37.5491C193.781 37.0155 194.616 36.0712 195.804 35.6579C196.932 35.2658 197.996 34.6224 199.106 34.2834C200.112 33.9691 201.687 34.2991 201.503 35.6437C201.377 36.5884 199.562 38.2221 201.41 38.4426C202.645 38.5884 203.754 37.6407 203.179 36.2851C202.722 35.2056 202.144 34.3631 202.74 33.1851C203.299 32.0779 204.234 31.8343 205.065 31.0599C205.582 30.5825 207.001 28.7221 207.647 30.2193C207.879 30.7573 207.322 31.2806 207.504 31.808C207.707 32.3955 208.315 32.2614 208.767 31.9397C209.893 31.1512 209.285 30.015 208.924 29.0205C208.745 28.5179 208.61 27.9233 208.662 27.3678C208.715 26.7946 208.984 26.3348 208.404 25.8992C207.983 25.5875 207.308 25.6402 206.843 25.4913C206.439 25.3566 206.068 25.1441 205.66 24.9669C205.391 24.8181 205.968 25.1758 205.674 25.0129Z" fill="#FBDF6A"/>
<path opacity="0.55" d="M181.676 26.0743C179.21 24.254 177.138 21.9916 174.858 19.991C173.878 21.3067 172.275 21.8118 170.072 21.3964C168.643 21.1266 167.365 20.9843 166.228 22.0169C166.5 22.1374 166.773 22.2578 167.046 22.396C172.751 25.2727 177.722 28.6904 184.41 28.7581C185.113 28.7621 185.763 28.7129 186.399 28.6354C184.712 27.9904 183.119 27.1402 181.676 26.0743Z" fill="#ECBC49"/>
<path opacity="0.55" d="M201.598 23.7545C199.852 22.1328 198.394 22.6273 196.209 22.1589C195.156 21.9318 194.394 21.5421 193.696 20.7243C192.181 18.9435 191.709 18.2249 189.309 19.0019C188.139 19.3799 186.869 19.0748 185.839 18.5186C185.156 18.1431 184.82 17.1627 184.129 16.8616C183.676 16.6631 183.208 16.5602 182.728 16.5246C182.272 16.8923 181.869 17.3308 181.508 17.8366C181.365 18.0311 181.204 18.208 181.043 18.3671C181.043 18.4025 181.054 18.4414 181.064 18.4804C181.941 19.2806 183.219 19.9608 183.849 20.3185C185.846 21.4627 187.903 22.4441 190.065 23.2239C194.088 24.6771 198.042 24.0991 202.163 24.2325C201.976 24.0873 201.781 23.928 201.598 23.7545Z" fill="#ECBC49"/>
<path opacity="0.55" d="M161.551 42.6222C161.108 42.4804 160.783 42.2361 160.521 41.9422C160.14 43.0318 159.985 44.0969 160.878 45.0917C161.772 46.0866 163.495 45.7338 163.786 44.3362C163.957 43.5543 163.598 42.9738 163.2 42.4038C162.701 42.6866 162.132 42.8101 161.551 42.6222Z" fill="#ECBC49"/>
<path opacity="0.55" d="M177.785 40.9692C177.238 41.029 176.693 40.6996 176.382 40.2536C175.878 40.9185 175.502 41.6083 175.97 42.5498C176.708 44.0365 179.727 43.8083 180.009 42.0887C180.119 41.4165 179.614 40.8465 179.138 40.2446C178.855 40.6762 178.271 40.9129 177.785 40.9692Z" fill="#ECBC49"/>
<path opacity="0.55" d="M186.52 42.6765C185.949 42.6868 185.439 42.3751 185.157 41.9149C184.645 42.9372 183.924 44.239 184.68 44.9932C185.419 45.7296 186.914 45.543 187.67 44.8853C188.294 44.3372 187.924 43.1798 187.616 42.203C187.334 42.493 186.946 42.6768 186.52 42.6765Z" fill="#ECBC49"/>
<path opacity="0.55" d="M203.133 36.1402C202.759 36.4761 202.243 36.635 201.693 36.4932C201.541 36.4541 201.396 36.3762 201.258 36.2947C200.781 37.1932 199.959 38.2543 201.421 38.4286C202.656 38.5744 203.765 37.6267 203.189 36.2711C203.175 36.2251 203.154 36.1826 203.133 36.1402Z" fill="#ECBC49"/>
<path opacity="0.55" d="M167.82 36.6603C166.897 36.5359 166.006 36.6167 165.114 36.6799C164.467 36.8599 163.933 37.1604 163.629 37.6379C163.889 37.5178 164.134 37.4754 164.365 37.4933C165.196 37.4159 165.979 37.6889 166.855 37.7743C168.246 37.9132 169.843 37.5001 171.25 37.2603C170.097 37.1004 168.969 36.8131 167.82 36.6603Z" fill="#F2CC49"/>
<path opacity="0.55" d="M150.417 37.1378C149.664 37.1232 148.962 36.8893 148.536 36.2273C148.402 36.0114 148.329 35.7742 148.295 35.5265C148.184 35.5902 148.081 35.6502 147.978 35.728C147.792 35.873 147.678 36.018 147.588 36.2303C147.495 36.4178 147.352 36.5769 147.269 36.7679C147.108 37.1394 147.005 37.7373 147.181 38.1621C147.282 38.4027 147.612 38.5126 147.853 38.5694C148.19 38.6404 148.549 38.5592 148.876 38.4674C149.488 38.2873 150.082 38.001 150.634 37.6829C151.022 37.4637 151.368 37.2304 151.71 37.0077C151.265 37.0959 150.818 37.1416 150.417 37.1378Z" fill="#ECBC49"/>
<path opacity="0.55" d="M162.817 27.3545C160.796 28.8607 155.968 28.7694 154.969 31.1537C154.581 32.0877 154.336 32.9332 153.877 33.7433C155.355 33.5212 156.863 32.9489 158.319 32.9144C159.448 32.8832 160.513 33.0608 161.619 33.3056C163.052 33.6179 164.289 33.3568 165.723 33.3682C168.244 33.3875 170.664 34.3125 173.181 34.2184C175.365 34.1313 177.083 32.8903 179.214 32.6439C182.077 32.3165 184.432 36.4686 187.244 34.9311C189.708 33.5844 192.176 32.0325 194.847 31.1388C197.4 30.2946 201.506 31.2384 203.445 29.0669C203.902 28.5576 204.281 28.0164 204.699 27.5001C203.013 27.446 201.333 27.5476 199.681 27.8474C196.493 28.4328 193.883 29.9316 190.882 30.9984C188.243 31.9381 185.384 32.1133 182.609 31.7967C176.591 31.1137 172.141 28.673 166.9 25.8921C166.132 25.4882 165.367 25.1445 164.594 24.8397C164.405 25.7278 163.847 26.5873 162.817 27.3545Z" fill="#ECBC49"/>
<path opacity="0.55" d="M194.431 34.7335C192.588 35.6135 188.172 38.9618 188.16 39.2944C188.441 39.0929 188.787 38.895 189.196 38.6652C190.236 38.0784 191.528 38.0544 192.646 37.5349C193.791 37.0013 194.627 36.057 195.815 35.6437C196.942 35.2516 198.007 34.6083 199.116 34.2692C199.579 34.128 200.15 34.1177 200.622 34.2808C200.622 34.2631 200.622 34.2454 200.622 34.2277C200.619 34.0437 196.41 33.7864 194.431 34.7335Z" fill="#F2CC49"/>
<path opacity="0.55" d="M207.969 30.3327C207.873 30.3362 207.777 30.322 207.682 30.3077C207.807 30.8103 207.347 31.2948 207.514 31.7938C207.717 32.3813 208.325 32.2472 208.778 31.9255C209.64 31.3209 209.477 30.5105 209.197 29.7142C208.908 30.0785 208.455 30.3294 207.969 30.3327Z" fill="#ECBC49"/>
<path d="M156.972 31.8271C156.972 31.8271 153.309 32.4902 152.657 33.6433C152.005 34.7965 153.163 35.9684 155.075 34.8691C156.984 33.7627 157.488 31.7213 156.972 31.8271Z" fill="#14B661"/>
<path d="M167.863 23.1289L167.871 24.2719L171.851 24.9253L172.278 23.2483C172.282 23.2554 168.877 22.6341 167.863 23.1289Z" fill="#14B661"/>
<path d="M183.005 18.6015L183.798 19.7167L186.83 18.3703C186.83 18.3703 186.46 17.0537 186.096 16.8554L183.005 18.6015Z" fill="#FF3E4A"/>
<path d="M186.464 26.4947L186.474 27.857C186.474 27.857 190.566 28.1815 190.56 28.1143C190.56 28.0435 190.919 25.9064 190.919 25.9064L186.464 26.4947Z" fill="#14B661"/>
<path d="M194.807 20.0311L193.907 21.0956C193.907 21.0956 195.113 22.8621 195.842 23.2058L197.115 22.0707C197.126 22.0742 194.809 20.3389 194.807 20.0311Z" fill="#FF3E4A"/>
<path d="M165.574 33.4421L165.588 35.0062L169.136 35.2914L170.476 32.8612C170.476 32.8612 167.159 33.114 165.574 33.4421Z" fill="#FF3E4A"/>
<path d="M191.399 32.842C191.399 32.842 189.688 32.0059 187.903 32.4684C186.119 32.9308 185.934 32.2018 185.428 32.6827C184.921 33.1636 184.524 35.2582 187.341 34.8919C190.158 34.5256 189.232 33.7678 190.159 33.5985C191.094 33.4434 191.908 33.2068 191.399 32.842Z" fill="#14B661"/>
<path d="M202.243 30.379C202.243 30.379 203.347 27.5807 205.508 27.1786C207.668 26.7765 207.644 28.8182 205.94 29.3904C204.255 29.9626 201.924 31.0405 202.243 30.379Z" fill="#14B661"/>
<path d="M192.235 20.9463C191.698 19.0068 189.185 18.8426 187.619 19.0645C185.885 19.3077 183.476 20.4421 183.239 22.3775C183.08 23.6654 184.52 24.4943 185.602 24.725C186.815 24.9875 188.869 25.2294 189.977 24.5825C191.006 24.0099 192.765 22.8892 192.235 20.9463Z" fill="#766974"/>
<path opacity="0.65" d="M192.235 20.9463C191.698 19.0068 189.185 18.8426 187.619 19.0645C185.885 19.3077 183.476 20.4421 183.239 22.3775C183.08 23.6654 184.52 24.4943 185.602 24.725C186.815 24.9875 188.869 25.2294 189.977 24.5825C191.006 24.0099 192.765 22.8892 192.235 20.9463ZM189.447 22.5334C188.739 22.8231 188.16 22.9608 186.857 23.0343C185.994 23.0833 185.122 22.7573 184.892 21.9539C184.647 21.1045 185.159 20.2591 185.984 19.9907C187.115 19.6233 188.228 19.3798 189.417 19.3629C191.476 19.3287 191.351 21.7561 189.447 22.5334Z" fill="#6C5F66"/>
<path d="M189.373 20.382C189.232 20.3111 189.086 20.2863 188.926 20.2862C188.61 20.293 188.233 20.4096 187.945 20.5439C187.735 20.6393 187.483 20.7736 187.407 21.0142C187.338 21.2158 187.408 21.4105 187.589 21.5238C187.837 21.6832 188.206 21.6587 188.49 21.6235C188.749 21.5918 188.998 21.5211 189.23 21.3974C189.39 21.3091 189.572 21.1924 189.679 21.0332C189.722 20.959 189.671 20.5343 189.373 20.382Z" fill="#AAA2A9"/>
<path d="M173.9 24.9052C173.9 24.9052 176.237 21.8387 178.025 21.3303C179.814 20.8218 181.767 22.1641 180.382 23.5043C179.009 24.8482 173.157 25.8036 173.9 24.9052Z" fill="#14B661"/>
<path d="M158.584 31.8034L159.479 33.3361L171.29 29.2102L171.39 27.7135C171.39 27.7135 168.612 25.1924 164.726 26.2304C160.847 27.2648 158.635 29.5989 158.584 31.8034Z" fill="#D12424"/>
<path d="M158.584 31.8034L171.39 27.7135C171.39 27.7135 168.612 25.1924 164.726 26.2304C160.847 27.2648 158.635 29.5989 158.584 31.8034Z" fill="#EA3333"/>
<path d="M161.868 29.7848C162.248 29.7815 163.435 30.1184 163.556 30.0937C163.677 30.069 162.669 29.2014 162.669 29.2014C162.669 29.2014 163.636 28.2714 165.845 28.2515C165.845 28.2515 165.251 29.0756 165.85 29.2281C166.453 29.3877 166.697 28.2166 166.691 28.0609C166.691 27.9193 168.243 27.8283 168.897 28.501L171.379 27.7099C171.379 27.7099 168.601 25.1888 164.715 26.2267C160.847 27.2647 158.634 29.5988 158.584 31.8033L161.105 31.0016C161.271 30.5487 161.601 29.7846 161.868 29.7848Z" fill="#C91D1D"/>
<path d="M163.585 27.953C165.626 27.2394 167.997 26.795 169.736 28.2433L171.383 27.717C171.383 27.717 168.605 25.1959 164.719 26.2339C160.847 27.2648 158.635 29.5989 158.584 31.8034L159.779 31.422C160.091 29.476 161.814 28.5676 163.585 27.953Z" fill="#FF3333"/>
<path d="M162.338 30.3372C162.333 30.4363 162.223 30.5176 162.081 30.5175C161.939 30.5174 161.819 30.436 161.823 30.3369C161.827 30.2378 161.937 30.1565 162.079 30.1566C162.221 30.1567 162.338 30.2311 162.338 30.3372Z" fill="#FF7E70"/>
<path d="M163.95 29.28C163.946 29.3968 163.829 29.4994 163.676 29.4957C163.527 29.4992 163.399 29.4036 163.404 29.2868C163.408 29.17 163.525 29.0675 163.678 29.0711C163.831 29.0747 163.951 29.1562 163.95 29.28Z" fill="#FF7E70"/>
<path d="M164.977 29.2913C164.98 29.4222 164.848 29.5318 164.688 29.5317C164.528 29.5316 164.397 29.4289 164.395 29.298C164.392 29.1671 164.524 29.0574 164.683 29.0575C164.847 29.047 164.981 29.1568 164.977 29.2913Z" fill="#FF7E70"/>
<path d="M167.551 28.472C167.547 28.571 167.448 28.6559 167.313 28.6523C167.181 28.6557 167.072 28.5778 167.072 28.4717C167.076 28.3726 167.176 28.2877 167.311 28.2914C167.442 28.2879 167.548 28.3764 167.551 28.472Z" fill="#FF7E70"/>
<path d="M202.794 28.0401L202.043 26.8684L202.036 26.8542C202.036 26.8542 198.971 27.1142 198.013 27.0606L201.244 24.7412C201.244 24.7412 196.668 23.96 194.355 25.1617C192.255 26.2574 192.607 27.5209 192.499 28.501C192.48 28.6602 192.501 28.8265 192.56 28.9822L192.013 30.507C191.819 31.0448 192.046 31.6464 192.539 31.9227C192.723 32.0255 192.903 32.1034 193.038 32.1424C193.268 32.2133 193.566 32.2949 193.917 32.3588C194.964 32.5541 196.49 32.6257 198.328 32.1102C198.989 31.9231 199.562 31.6651 200.05 31.3611C200.214 31.2621 200.367 31.1596 200.517 31.05C200.952 30.7282 201.319 30.3782 201.612 30.0386C201.715 29.9255 201.801 29.8123 201.887 29.6991C202.563 28.8078 202.794 28.0401 202.794 28.0401Z" fill="#E7D1CA"/>
<path d="M191.768 29.226L192.335 30.8328C192.475 31.2222 192.79 31.516 193.187 31.6366C194.13 31.9273 196.031 32.2894 198.473 31.5973C202.004 30.5945 202.946 27.5236 202.946 27.5236L202.181 26.3413C202.181 26.3413 199.116 26.6013 198.158 26.5476L201.39 24.2283C201.39 24.2283 196.814 23.4471 194.5 24.6488C192.4 25.7445 191.811 27.7575 191.703 28.7376C191.688 28.9039 191.708 29.0703 191.768 29.226Z" fill="#E65126"/>
<path d="M202.189 26.3551C202.056 27.2326 201.704 28.0427 200.949 28.6296C199.716 29.5772 198.313 30.2735 196.757 30.5167C194.863 30.8128 192.627 30.723 191.73 29.1124C191.74 29.1513 191.74 29.1867 191.758 29.2221L192.325 30.8289C192.465 31.2183 192.779 31.5122 193.176 31.6327C194.119 31.9234 196.02 32.2855 198.463 31.5934C201.993 30.5906 202.935 27.5197 202.935 27.5197L202.189 26.3551Z" fill="#D93300"/>
<path d="M194.369 27.4757C194.545 27.7766 194.351 28.2082 193.952 28.4415C193.546 28.6783 193.081 28.6179 192.909 28.3241C192.733 28.0232 192.927 27.5916 193.326 27.3583C193.724 27.125 194.193 27.1748 194.369 27.4757Z" fill="#EA8D70"/>
<path d="M197.113 25.4782C197.268 25.7897 197.049 26.2071 196.625 26.4086C196.205 26.6171 195.744 26.5284 195.59 26.2169C195.435 25.9054 195.654 25.488 196.077 25.2865C196.497 25.078 196.958 25.1668 197.113 25.4782Z" fill="#EA8D70"/>
<path d="M197.979 28.2779C198.087 28.6035 197.816 28.9855 197.367 29.1374C196.927 29.2858 196.48 29.1369 196.368 28.8042C196.26 28.4786 196.531 28.0966 196.979 27.9447C197.42 27.7964 197.867 27.9453 197.979 28.2779Z" fill="#EA8D70"/>
<path d="M200.851 27.5929C200.959 27.9185 200.688 28.3005 200.24 28.4524C199.799 28.6007 199.352 28.4518 199.24 28.1192C199.132 27.7935 199.403 27.4115 199.851 27.2597C200.303 27.1149 200.75 27.2637 200.851 27.5929Z" fill="#EA8D70"/>
<path d="M184.158 31.6628C184.19 31.6027 184.212 31.539 184.233 31.4753C184.24 31.4541 184.244 31.4258 184.251 31.4046C184.273 31.3232 184.277 31.2418 184.281 31.1604C184.285 31.1321 184.281 31.1073 184.278 31.0826C184.274 31.0224 184.271 30.9623 184.261 30.9056C184.25 30.8667 184.251 30.8313 184.24 30.7924C184.23 30.7358 184.212 30.6827 184.188 30.6331C184.163 30.5659 184.142 30.5057 184.111 30.442C184.089 30.3995 184.068 30.357 184.047 30.3146C184.023 30.265 183.991 30.219 183.956 30.1659C183.935 30.1411 183.917 30.1057 183.896 30.0809C183.772 29.9039 183.624 29.7481 183.451 29.5959C183.433 29.5782 183.416 29.5605 183.391 29.5463C183.331 29.4967 183.271 29.4472 183.21 29.3976C182.708 29.0293 182.081 28.767 181.41 28.7206C179.153 28.5707 178.416 29.6955 178.398 30.4102C178.38 31.125 177.132 32.3804 176.486 31.5273C176.105 31.0281 176.412 30.7346 176.725 30.5791C176.646 30.7418 176.61 30.9895 177.103 31.0181C177.848 31.0539 178.383 29.8441 177.086 29.3762C175.857 28.9367 172.768 30.2759 172.312 32.1086C172.29 32.2077 172.321 32.3245 172.26 32.4164C171.256 33.7888 172.271 35.1906 176.563 35.9186C177.883 36.1459 179.084 35.8671 180.002 35.5527C180.258 35.4608 180.5 35.3584 180.71 35.2453C181.027 35.0791 181.287 34.8882 181.48 34.6866C181.737 34.4179 181.866 34.1242 181.853 33.8305C181.85 33.7173 181.837 33.6182 181.823 33.5191C181.789 33.2714 181.744 33.0555 181.67 32.8715C181.762 32.8609 181.855 32.8504 181.954 32.8363C182.356 32.7693 182.811 32.6492 183.344 32.4019C183.469 32.3489 183.562 32.2852 183.665 32.2251C183.69 32.2039 183.718 32.1898 183.736 32.1721C183.807 32.1191 183.875 32.059 183.936 32.0024C183.947 31.9882 183.968 31.9776 183.979 31.9635C184.039 31.8892 184.1 31.8149 184.143 31.7406C184.133 31.7017 184.15 31.684 184.158 31.6628ZM179.578 33.125C179.809 32.8951 180.083 32.8564 180.431 32.8601C180.498 32.9946 180.486 33.1326 180.383 33.2635C180.262 33.2351 180.145 33.2138 180.035 33.189C180.025 33.1854 180.014 33.1819 179.996 33.1819C179.758 33.1499 179.578 33.125 179.578 33.125ZM174.923 30.3445C174.848 30.3727 174.777 30.4081 174.706 30.4434C174.699 30.4469 174.692 30.4505 174.684 30.454C174.62 30.4858 174.556 30.5176 174.496 30.5565C174.481 30.5636 174.467 30.5707 174.453 30.5777C174.4 30.6131 174.343 30.6413 174.289 30.6767C174.268 30.6873 174.25 30.705 174.236 30.7121C174.189 30.7439 174.143 30.7757 174.097 30.8075C174.09 30.811 174.079 30.8252 174.072 30.8287C174.461 30.4503 175.044 30.1959 175.584 30.1219C175.378 30.1713 175.151 30.2491 174.923 30.3445Z" fill="#E7D1CA"/>
<path d="M177.275 29.3268C177.275 29.3268 175.953 29.5949 176.598 30.5366C177.246 31.4676 178.492 30.0989 178.51 29.3134C178.528 28.5278 179.266 27.2969 181.523 27.4645C183.78 27.6322 185.591 30.4394 183.459 31.5067C181.323 32.567 180.377 31.5898 179.706 32.3112C179.706 32.3112 181.047 32.4925 181.017 32.7366C180.954 33.2355 179.286 33.9493 177.629 33.6865C176.849 33.5621 175.72 33.3987 174.322 32.6194C171.164 30.8695 176.299 27.7905 177.275 29.3268Z" fill="#EAC086"/>
<path d="M180.15 32.3823C180.139 32.3788 180.122 32.3788 180.111 32.3752C179.01 33.1071 177.271 33.0529 176.32 32.2456C175.874 31.8667 175.796 31.2439 175.902 30.7061C176.037 29.9772 176.607 29.5352 177.251 29.295C176.228 27.8259 171.186 30.8766 174.319 32.6124C175.718 33.3917 176.846 33.5552 177.626 33.6795C179.013 33.8997 180.397 33.4334 180.857 32.9843C180.581 32.8568 180.34 32.6408 180.15 32.3823Z" fill="#D59D63"/>
<path d="M183.327 28.2016C183.32 28.2052 183.305 28.2123 183.298 28.2158C183.52 28.6441 183.506 29.3129 183.241 29.6913C182.666 30.4801 182.022 30.6495 181.074 30.6525C179.466 30.6657 179.578 31.6778 179.065 32.7532C179.527 32.5942 179.695 32.3077 179.695 32.3077C180.37 31.5933 181.317 32.5705 183.449 31.5032C184.951 30.7574 184.501 29.1542 183.327 28.2016Z" fill="#DA9F59"/>
<path d="M176.924 29.3336C176.924 29.3336 176.466 29.9313 177.208 29.9778C177.957 30.0207 178.493 28.687 177.192 28.1767C175.899 27.6628 172.211 28.8318 172.076 31.061C171.94 33.2902 173.614 35.0711 176.663 35.3489C179.711 35.6268 182.004 34.3472 181.946 33.0698C181.885 31.7853 181.466 31.1198 180.521 31.1652C180.521 31.1652 179.984 31.4586 180.383 31.8162C180.783 32.1738 180.61 32.7187 179.586 32.9268C178.562 33.135 175.456 33.8833 174.085 31.7664C172.726 29.6354 176.226 28.2858 176.924 29.3336Z" fill="#F6E4CA"/>
<path d="M178.357 34.3486C176.585 34.4254 174.945 34.4102 173.56 33.1745C172.715 32.4202 171.888 31.6484 172.167 30.6188C172.123 30.7639 172.091 30.9125 172.086 31.0646C171.951 33.2938 173.625 35.0747 176.673 35.3525C179.721 35.6304 182.014 34.3508 181.957 33.0734C181.944 32.8504 181.92 32.6593 181.889 32.4718C181.499 33.7065 179.806 34.2822 178.357 34.3486Z" fill="#F6E4CA"/>
</g>
<defs>
<clipPath id="clip0_1_8334">
<rect width="71.4077" height="31.844" fill="white" transform="translate(144 31.7554) rotate(-26.4043)"/>
</clipPath>
</defs>
</svg>
