<svg width="755" height="626" viewBox="0 0 755 626" fill="none" xmlns="http://www.w3.org/2000/svg">
<path d="M702.431 202.311C685.225 203.59 668.167 205.857 651.79 210.586C617.887 220.382 588.201 239.211 558.423 257.737C531.285 274.66 506.869 295.323 479.213 311.392C454 325.978 425.531 334.902 397.04 340.515C364.464 346.99 330.719 351.837 297.574 353.355C264.084 354.902 233.364 348.209 200.429 344.566C168.725 341.165 136.709 339.482 104.823 337.27C79.5278 360.354 53.8483 388.164 46.3942 414.885C46.3942 414.885 47.2959 440.04 57.8333 438.047C68.3046 436.094 129.149 405.18 222.202 422.114C222.202 422.114 242.208 424.258 279.996 412.823C317.718 401.427 405 402.453 427.873 403.217C450.813 403.94 478.587 402.357 555.966 361.316C633.344 320.276 644.245 291.193 684.699 277.599C725.153 264.006 751.39 246.641 723.783 217.389C723.743 217.323 714.837 211.136 702.431 202.311Z" fill="#EC9936"/>
<path opacity="0.55" d="M636.56 281.659C635.596 267.865 637.924 243.267 648.94 232.536C662.911 218.932 686.692 208.091 709.177 207.023C707.083 205.509 704.883 203.968 702.497 202.271C685.291 203.55 668.233 205.817 651.856 210.546C617.953 220.342 588.267 239.171 558.488 257.697C531.351 274.62 506.935 295.283 479.279 311.352C454.066 325.938 425.597 334.862 397.106 340.475C364.53 346.949 330.785 351.797 297.64 353.315C264.15 354.862 233.43 348.169 200.495 344.526C168.725 341.165 136.709 339.482 104.823 337.27C79.5278 360.353 53.8483 388.164 46.3942 414.885C46.3942 414.885 46.7934 425.517 49.9736 432.393C50.0397 432.353 50.1456 432.379 50.2116 432.339C62.0234 431.998 72.9349 421.69 82.7885 416.338C92.6421 410.985 102.22 406.519 113.099 403.6C128.353 399.552 145.557 397.376 160.481 403.055C167.512 405.707 169.975 411.401 169.355 417.079C177.98 417.146 187.122 417.617 196.649 418.574C203.816 402.99 226.97 409.874 240.577 408.174C256.274 406.194 270.327 403.145 285.54 398.584C294.091 395.999 301.758 394.04 310.728 394.527C316.113 394.763 320.452 399.678 322.475 404.201C322.688 404.701 322.901 405.201 323.154 405.766C331.776 404.935 340.77 404.418 349.697 403.942C349.919 402.818 350.207 401.655 350.747 400.609C355.046 391.169 366.495 388.443 375.788 391.249C382.739 393.32 389.23 397.018 393.334 402.885C408.559 402.809 421.179 403.056 428.019 403.308C432.808 403.456 437.835 403.55 443.442 403.112C452.784 389.622 465.232 389.435 480.511 384.834C498.354 379.394 511.228 361.155 528.323 352.844C539.182 347.511 547.446 356.064 548.239 365.558C550.802 364.271 553.457 362.84 556.112 361.408C564.446 356.977 571.962 352.685 578.869 348.582C575.63 344.437 574.108 339.25 575.771 333.208C577.592 326.531 585.574 323.752 589.066 318.937C593.771 312.396 600.039 306.794 607.128 311.028C611.778 313.777 615.241 317.696 618.81 321.64C626.836 315.51 633.66 309.93 640.035 304.801C638.317 295.42 637.167 290.996 636.56 281.659Z" fill="#DB8C36"/>
<path d="M556.519 331.414C565.308 323.563 577.45 318.259 586.919 312.422C607.467 299.679 620.42 281.122 636.882 264.029C659.794 240.146 681.898 210.911 719.947 217.47C721.773 217.8 723.467 218.209 725.03 218.698C724.645 218.213 724.234 217.834 723.809 217.283C723.809 217.283 636.02 156.174 627.746 144.032C619.512 131.956 555.228 89.9196 495.789 97.6934C484.417 99.2047 475.172 99.6047 468.28 99.5646C456.507 99.522 444.9 102.434 434.758 108.501C419.002 117.975 399.879 134.256 401.252 157.507C401.252 157.507 358.805 206.819 339.834 215.908C320.837 225.104 273.906 235.619 251.64 239.43C229.334 243.175 175.428 271.674 160.157 288.942C145.032 306.302 62.2691 361.844 46.7479 413.682C46.88 413.602 47.0121 413.522 47.184 413.507C77.5828 404.041 108.741 391.507 141.153 392.95C177.283 394.563 209.167 405.853 245.88 397.855C247.956 397.404 249.755 397.391 251.435 397.629C277.282 392.274 303.017 385.099 328.703 379.032C353.635 373.064 375.088 376.846 400.264 378.278C453.568 381.238 506.99 359.234 552.331 333.148C553.717 332.307 555.131 331.808 556.519 331.414Z" fill="#FAC64C"/>
<path opacity="0.55" d="M723.743 217.323C723.743 217.323 635.954 156.214 627.68 144.073C619.446 131.997 555.162 89.9599 495.723 97.7336C484.351 99.2449 475.106 99.6449 468.214 99.6048C456.44 99.5622 444.834 102.474 434.691 108.541C418.936 118.015 399.813 134.297 401.186 157.547C401.186 157.547 401.027 157.733 400.869 157.919C422.029 165.833 449.906 172.456 479.916 175.897C512.203 179.663 550.556 191.339 572.209 205.424C594.22 219.652 629.429 262.173 632.937 267.952C634.177 266.57 635.457 265.254 636.696 263.873C659.609 239.989 681.713 210.755 719.761 217.314C721.587 217.643 723.282 218.052 724.844 218.542C724.579 218.253 724.194 217.768 723.743 217.323Z" fill="#C2664C"/>
<path d="M723.743 217.323C723.743 217.323 635.954 156.214 627.68 144.073C619.446 131.997 555.162 89.9599 495.723 97.7337C484.351 99.2449 475.106 99.6449 468.214 99.6049C456.441 99.5623 444.834 102.474 434.691 108.541C420.917 116.813 404.485 130.382 401.56 149.232C410.577 152.476 419.37 155.945 429.188 157.084C444.379 158.737 459.686 159.69 474.785 161.937C499.201 165.538 522.389 170.244 545.141 179.888C568.714 189.842 591.354 197.217 609.752 215.615C622.777 228.737 632.675 244.297 639.163 261.387C661.217 238.024 683.115 210.981 719.867 217.339C721.693 217.668 723.388 218.078 724.95 218.567C724.579 218.253 724.194 217.768 723.743 217.323Z" fill="#F89945"/>
<path d="M640.27 191.608C626.333 188.745 612.465 186.739 600.694 178.067C582.31 164.604 567.213 148.516 545.298 140.251C524.059 132.206 502.736 137.421 480.901 139.262C453.777 141.619 433.59 136.349 414.417 124.712C408.073 131.529 403.122 139.747 401.64 149.363C410.657 152.607 419.45 156.076 429.268 157.215C444.458 158.868 459.766 159.821 474.865 162.068C499.281 165.669 522.469 170.375 545.221 180.019C568.794 189.973 591.434 197.348 609.832 215.746C622.857 228.868 632.754 244.428 639.243 261.518C649.808 250.341 660.279 238.414 672.385 229.627C663.166 215.183 657.092 195.056 640.27 191.608Z" fill="#E2762E"/>
<path d="M671.505 261.075C674.973 262.025 679.543 259.431 682.913 258.284C686.653 257.002 690.208 255.563 693.775 253.847C697.804 251.851 707.461 247.067 707.26 241.527C706.964 234.787 696.557 235.803 692.298 236.231C685.567 236.902 679.845 238.938 674.167 242.834C669.969 245.742 663.859 251.158 664.403 256.669C664.988 262.695 674.045 261.24 678.234 259.507L671.505 261.075Z" fill="#B15631"/>
<path opacity="0.55" d="M483.86 127.761C488.74 127.315 494.946 128.31 500.597 129.283C507.651 130.483 514.238 130.169 521.393 129.6C522.265 129.251 523.506 128.318 523.609 127.446C525.14 126.247 525.411 123.567 524.718 121.83C525.647 113.089 515.623 109.378 507.312 108.043C501.423 107.124 495.655 106.851 489.531 106.885C484.755 106.908 476.672 106.692 472.884 109.531C470.647 109.271 464.755 111.77 464.059 113.899C461.734 115.131 461.061 120.572 462.298 123.056C463.748 126.04 467.759 126.841 470.856 127.477C478.664 129.027 483.86 127.761 483.86 127.761Z" fill="#F89945"/>
<path opacity="0.55" d="M546.705 132.298C550.504 133.047 557.884 137.464 561.299 133.414C564.833 129.112 559.119 124.762 555.558 123.509C552.314 122.333 542.865 121.059 541.488 125.49C539.73 130.781 542.686 133.12 546.705 132.298Z" fill="#F89945"/>
<path opacity="0.55" d="M613.45 164.843C617.25 166.041 643.073 186.401 643.395 173.535C643.514 168.52 636.728 163.742 633.65 160.309C629.576 155.682 624.845 152.354 619.19 150.035C614.86 148.26 612.018 149.087 607.815 150.2C603.717 151.34 598.385 150.892 600.399 157.038C603.2 165.672 607.161 162.819 613.45 164.843Z" fill="#F89945"/>
<path opacity="0.55" d="M677.001 195.103C680.475 198.296 684.329 204.943 680.968 209.23C672.61 219.875 656.922 195.519 653.557 188.934C652.866 187.646 652.4 186.581 652.514 184.984C654.498 184.678 657.419 183.983 659.314 185.17C661.646 186.63 672.584 190.954 677.001 195.103Z" fill="#F89945"/>
<path d="M592.397 244.932C588.159 243.011 586.501 241.322 585.207 237.255C584.032 233.385 585.62 228.557 581.538 226.002C581.313 216.253 559.254 208.346 550.771 207.025C538.61 205.151 529.535 209.851 518.22 212.945C508.597 215.551 503.443 212.569 502.373 203.513C501.924 203.516 501.5 203.414 501.05 203.417C501.327 202.98 501.537 202.582 501.814 202.145C501.455 201.554 500.979 201.663 500.594 201.178C500.532 197.801 497.99 191.975 494.785 190.416C491.176 181.643 476.223 179.935 467.782 179.129C462.026 178.579 455.029 178.962 449.239 180.14C442.496 181.537 439.244 187.196 433.284 189.286C424.298 192.494 423.266 173.081 413.308 169.33C404.344 165.875 390.049 167.633 381.089 170.735C368.216 175.134 359.364 183.923 352.424 195.415C345.366 207.158 334.761 213.506 321.086 209.586C308.973 206.155 300.365 207.605 291.701 217.448C282.905 227.371 274.118 230.907 260.521 231.433C249.649 231.832 238.784 230.16 227.647 230.719C211.339 231.542 203.336 236.221 192.865 248.149C182.395 260.076 174.231 274.018 164.038 285.957C155.045 296.449 143 298.638 130.506 300.831C112.141 304.071 101.368 311.779 91.0786 327.281C86.349 334.375 85.7855 341.188 83.7967 349.225C81.2696 358.757 83.0008 367.861 77.3753 376.308C75.2697 380.283 61.6611 386.297 53.9579 389.535C49.9413 391.254 45.7003 393.2 42.4411 396.167C40.7653 397.723 39.7773 399.222 39.082 401.351C38.3331 403.243 37.081 404.902 36.438 406.82C35.1783 410.551 34.6783 416.426 36.7263 420.395C37.9097 422.642 41.1924 423.435 43.5744 423.786C46.8958 424.197 50.3057 423.115 53.3979 421.957C59.1724 419.71 64.6929 416.449 69.7761 412.914C83.1905 403.602 92.0265 393.745 108.097 388.214C128.951 381.036 162.169 381.721 173.341 404.145C184.9 427.503 153.455 455.938 175.165 476.369C184.634 485.269 201.037 480.434 202.706 466.66C204.441 452.846 190.627 446.763 186.39 435.316C182.205 424.107 183.262 408.728 194.344 402.719C205.294 396.791 215.581 400.342 226.985 400.519C241.02 400.716 256.561 395.056 270.309 391.654C278.32 389.666 286.396 387.639 294.314 385.349C300.169 383.682 307.726 379.904 313.891 380.385C324.516 381.215 333.576 395.396 328.391 405.462C322.693 416.47 311.012 425.808 319.184 439.27C327.555 453.06 356.604 448.367 357.921 431.481C358.842 420.048 341.864 412.92 339.716 401.194C337.016 386.028 354.564 383.823 365.832 383.184C377.101 382.544 388.287 385.639 396.708 393.557C404.122 400.56 412.715 408.464 410.202 418.168C407.597 428.466 395.439 447.439 405.463 455.912C413.219 462.437 427.55 459.399 434.33 452.408C442.192 444.221 429.972 426.026 428.148 416.62C425.545 403.102 432.028 398.897 443.952 390.85C453.537 384.313 466.034 383.017 476.429 377.067C487.087 370.956 494.402 361.124 505.566 356.144C516.162 351.419 525.945 344.313 536.41 340.117C545.897 336.245 561.419 338.146 560.741 351.319C560.303 360.571 544.066 377.886 562.15 378.501C574.229 378.898 584.189 368.808 577.5 356.152C572.195 346.073 565.904 338.389 570.7 326.491C575.207 315.308 584.061 312.18 591.473 303.996C596.089 298.947 608.299 279.762 615.785 293.731C618.47 298.751 613.512 304.277 615.708 309.235C618.157 314.758 623.933 312.959 628.05 309.471C638.305 300.909 631.477 290.406 627.166 281.071C625.024 276.35 623.223 270.704 623.274 265.28C623.312 259.686 625.534 255.012 619.558 251.27C615.226 248.598 608.733 249.663 604.114 248.603C600.09 247.631 596.315 245.879 592.224 244.498C589.496 243.278 595.377 246.268 592.397 244.932Z" fill="#FBDF6A"/>
<path opacity="0.55" d="M360.855 274.951C335.481 259.35 313.547 239.145 289.821 221.645C281.418 235.193 266.302 241.403 244.629 239.193C230.563 237.756 218.075 237.428 207.906 248.364C210.647 249.307 213.388 250.249 216.142 251.363C273.76 274.53 324.714 303.54 389.545 298.694C396.356 298.154 402.61 297.143 408.705 295.87C391.839 291.01 375.709 284.087 360.855 274.951Z" fill="#ECBC49"/>
<path opacity="0.55" d="M551.882 236.096C533.641 221.827 519.927 227.815 498.384 225.076C487.996 223.743 480.302 220.595 472.861 213.25C456.733 197.249 451.569 190.678 428.962 200.178C417.942 204.8 405.397 202.89 394.961 198.351C388.034 195.277 383.974 186.058 377.036 183.71C372.482 182.161 367.863 181.55 363.194 181.598C359.078 185.535 355.532 190.114 352.45 195.309C351.226 197.311 349.815 199.155 348.391 200.829C348.419 201.172 348.552 201.54 348.685 201.908C357.832 208.937 370.771 214.473 377.168 217.42C397.446 226.858 418.182 234.67 439.759 240.443C479.909 251.209 517.731 242.359 557.753 240.26C555.819 239.008 553.804 237.625 551.882 236.096Z" fill="#ECBC49"/>
<path opacity="0.55" d="M179.569 451.768C175.161 450.759 171.809 448.661 169.037 446.03C166.236 456.896 165.616 467.338 175.085 476.238C184.554 485.138 200.957 480.303 202.626 466.529C203.637 458.816 199.68 453.489 195.354 448.297C190.759 451.446 185.353 453.11 179.569 451.768Z" fill="#ECBC49"/>
<path opacity="0.55" d="M335.422 422.403C330.173 423.432 324.623 420.691 321.252 416.626C316.918 423.48 313.842 430.47 319.144 439.204C327.515 452.994 356.564 448.301 357.881 431.416C358.392 424.815 353.034 419.71 347.926 414.273C345.544 418.685 340.088 421.457 335.422 422.403Z" fill="#ECBC49"/>
<path opacity="0.55" d="M421.429 431.751C415.902 432.321 410.709 429.722 407.602 425.497C403.477 435.82 397.573 449.019 405.515 455.701C413.271 462.226 427.602 459.188 434.382 452.196C439.975 446.375 435.435 435.472 431.653 426.264C429.161 429.305 425.556 431.404 421.429 431.751Z" fill="#ECBC49"/>
<path opacity="0.55" d="M576.941 354.785C573.591 358.346 568.728 360.309 563.289 359.387C561.78 359.135 560.31 358.5 558.906 357.824C555.029 366.918 547.942 377.87 562.243 378.355C574.321 378.752 584.281 368.662 577.593 356.007C577.419 355.573 577.18 355.179 576.941 354.785Z" fill="#ECBC49"/>
<path opacity="0.55" d="M235.366 388.871C226.33 388.425 217.762 389.941 209.181 391.286C203.062 393.562 198.137 396.911 195.584 401.786C198.001 400.409 200.341 399.797 202.59 399.78C210.576 398.348 218.386 400.347 226.945 400.453C240.53 400.654 255.649 395.34 269.079 391.861C257.781 391.26 246.624 389.406 235.366 388.871Z" fill="#F2CC49"/>
<path opacity="0.55" d="M67.2224 407.814C59.9218 408.291 52.9328 406.603 48.26 400.543C46.7863 398.561 45.8807 396.325 45.3452 393.954C44.3285 394.661 43.3779 395.328 42.441 396.167C40.7653 397.723 39.7772 399.222 39.0819 401.351C38.3331 403.244 37.0809 404.902 36.4379 406.82C35.1782 410.551 34.6783 416.426 36.7262 420.395C37.9096 422.642 41.1923 423.435 43.5743 423.787C46.8957 424.197 50.3056 423.115 53.3978 421.957C59.1724 419.71 64.6928 416.449 69.776 412.914C73.3542 410.472 76.5088 407.928 79.6372 405.49C75.4075 406.709 71.1106 407.52 67.2224 407.814Z" fill="#ECBC49"/>
<path opacity="0.55" d="M179.27 302.862C160.94 319.111 114.108 322.198 106.395 346.111C103.404 355.475 101.721 363.866 97.9467 372.088C112.078 368.722 126.214 361.939 140.284 360.407C151.194 359.176 161.647 360.021 172.564 361.482C186.696 363.327 198.46 359.781 212.36 358.712C236.787 356.825 260.987 363.792 285.292 360.811C306.37 358.17 321.982 344.739 342.422 340.599C369.881 335.074 396.098 373.349 422.071 356.144C444.822 341.076 467.448 324.016 492.578 313.164C516.612 302.888 557.159 308.65 574.148 286.025C578.155 280.717 581.381 275.164 585.004 269.819C568.63 270.682 552.445 273.048 536.689 277.311C506.3 285.603 482.257 302.265 454.063 315.066C429.278 326.337 401.735 330.386 374.602 329.602C315.759 327.937 270.65 307.961 217.61 285.34C209.836 282.061 202.144 279.361 194.412 277.045C193.311 285.801 188.613 294.584 179.27 302.862Z" fill="#ECBC49"/>
<path opacity="0.55" d="M491.51 348.321C474.38 358.36 434.371 394.42 434.525 397.651C437.086 395.468 440.267 393.266 444.044 390.705C453.63 384.167 466.127 382.871 476.521 376.921C487.179 370.81 494.494 360.978 505.658 355.998C516.254 351.274 526.037 344.167 536.502 339.971C540.863 338.223 546.391 337.653 551.09 338.844C551.076 338.673 551.062 338.501 551.049 338.33C550.872 336.55 509.894 337.521 491.51 348.321Z" fill="#F2CC49"/>
<path opacity="0.55" d="M619.001 294.564C618.076 294.677 617.136 294.618 616.197 294.559C617.824 299.323 613.763 304.394 615.8 309.089C618.249 314.612 624.025 312.813 628.142 309.325C635.995 302.761 633.752 295.046 630.385 287.564C627.882 291.33 623.709 294.133 619.001 294.564Z" fill="#ECBC49"/>
<path d="M126.343 350.987C126.343 350.987 91.4068 360.422 86.0415 372.126C80.6763 383.83 92.8612 394.227 110.474 382.008C128.047 369.723 131.247 349.538 126.343 350.987Z" fill="#14B661"/>
<path d="M224.652 257.79L225.674 268.852L264.758 271.906L267.517 255.314C267.557 255.379 234.068 252.164 224.652 257.79Z" fill="#14B661"/>
<path d="M367.587 201.488L376.186 211.635L404.439 196.102C404.439 196.102 399.775 183.656 396.08 182.035L367.587 201.488Z" fill="#FF3E4A"/>
<path d="M407.564 275.085L408.79 288.269C408.79 288.269 448.685 288.046 448.564 287.4C448.51 286.715 450.225 265.723 450.225 265.723L407.564 275.085Z" fill="#14B661"/>
<path d="M483.053 205.625L475.212 216.676C475.212 216.676 488.339 232.792 495.688 235.52L507.084 223.479C507.19 223.505 483.326 208.605 483.053 205.625Z" fill="#FF3E4A"/>
<path d="M210.973 359.554L212.39 374.69L246.994 374.533L257.972 349.896C257.972 349.896 226.054 355.072 210.973 359.554Z" fill="#FF3E4A"/>
<path d="M460.579 332.499C460.579 332.499 443.325 325.808 426.422 331.755C409.52 337.702 407.133 330.793 402.623 335.868C398.113 340.942 395.986 361.554 422.969 355.689C449.951 349.824 440.356 343.247 449.199 340.845C458.122 338.574 465.813 335.613 460.579 332.499Z" fill="#14B661"/>
<path d="M563.577 299.722C563.577 299.722 571.966 271.713 592.56 266.041C613.154 260.37 614.597 280.163 598.57 287.106C582.715 294.035 561.028 306.391 563.577 299.722Z" fill="#14B661"/>
<path d="M458.902 216.602C452.106 198.261 427.635 198.737 412.644 202.175C396.053 205.956 373.653 218.924 372.951 237.863C372.469 250.467 387.105 257.309 397.77 258.653C409.732 260.199 429.828 260.851 440.02 253.675C449.514 247.283 465.632 234.983 458.902 216.602Z" fill="#766974"/>
<path opacity="0.65" d="M458.902 216.602C452.106 198.261 427.635 198.737 412.644 202.175C396.053 205.956 373.653 218.924 372.951 237.863C372.469 250.467 387.105 257.309 397.77 258.653C409.732 260.199 429.828 260.851 440.02 253.675C449.514 247.283 465.632 234.983 458.902 216.602ZM433.208 234.265C426.59 237.654 421.092 239.464 408.53 241.248C400.213 242.432 391.502 239.992 388.611 232.401C385.547 224.375 389.809 215.767 397.578 212.489C408.228 208.001 418.802 204.728 430.307 203.585C450.223 201.56 451.001 225.172 433.208 234.265Z" fill="#6C5F66"/>
<path d="M430.717 213.49C429.287 212.921 427.858 212.8 426.311 212.93C423.256 213.257 419.702 214.696 417.021 216.233C415.066 217.33 412.729 218.839 412.193 221.231C411.696 223.24 412.534 225.068 414.375 226.017C416.905 227.357 420.462 226.815 423.186 226.24C425.671 225.72 428.023 224.831 430.162 223.443C431.641 222.455 433.305 221.176 434.213 219.546C434.568 218.792 433.724 214.721 430.717 213.49Z" fill="#AAA2A9"/>
<path d="M284.582 270.028C284.582 270.028 304.695 238.407 321.596 232.012C338.498 225.616 358.516 237.009 346.213 251.128C334.015 265.272 278.125 279.339 284.582 270.028Z" fill="#14B661"/>
<path d="M141.935 349.43L151.854 363.539L262.848 313.865L262.584 299.288C262.584 299.288 233.607 277.157 196.829 290.406C160.118 303.614 140.607 328.04 141.935 349.43Z" fill="#D12424"/>
<path d="M141.935 349.43L262.584 299.288C262.584 299.288 233.607 277.157 196.829 290.406C160.118 303.614 140.607 328.04 141.935 349.43Z" fill="#EA3333"/>
<path d="M172.074 327.181C175.75 326.836 187.529 329.122 188.679 328.783C189.829 328.445 179.358 320.871 179.358 320.871C179.358 320.871 187.957 311.069 209.328 309.06C209.328 309.06 204.258 317.529 210.187 318.513C216.155 319.563 217.553 308.021 217.363 306.518C217.254 305.147 232.209 302.988 239.091 308.966L262.478 299.262C262.478 299.262 233.501 277.131 196.723 290.38C160.118 303.614 140.606 328.04 141.935 349.43L165.692 339.592C166.923 335.07 169.495 327.398 172.074 327.181Z" fill="#C91D1D"/>
<path d="M187.194 308.027C206.378 299.437 228.968 293.183 247.006 305.779L262.518 299.328C262.518 299.328 233.541 277.197 196.763 290.446C160.118 303.614 140.607 328.04 141.935 349.43L153.192 344.753C154.609 325.651 170.547 315.436 187.194 308.027Z" fill="#FF3333"/>
<path d="M177.074 332.143C177.117 333.106 176.114 333.985 174.738 334.101C173.363 334.217 172.131 333.527 172.088 332.564C172.046 331.601 173.049 330.723 174.425 330.607C175.8 330.491 176.992 331.115 177.074 332.143Z" fill="#FF7E70"/>
<path d="M191.832 320.579C191.888 321.713 190.832 322.803 189.351 322.893C187.91 323.05 186.598 322.228 186.542 321.094C186.486 319.96 187.541 318.87 189.022 318.779C190.504 318.689 191.736 319.379 191.832 320.579Z" fill="#FF7E70"/>
<path d="M201.777 319.844C201.913 321.109 200.726 322.279 199.178 322.41C197.631 322.54 196.279 321.653 196.144 320.388C196.008 319.122 197.195 317.952 198.743 317.822C200.316 317.585 201.708 318.538 201.777 319.844Z" fill="#FF7E70"/>
<path d="M226.037 309.79C226.079 310.753 225.182 311.657 223.873 311.733C222.603 311.875 221.477 311.21 221.395 310.182C221.352 309.219 222.249 308.315 223.559 308.239C224.828 308.097 225.928 308.868 226.037 309.79Z" fill="#FF7E70"/>
<path d="M566.993 276.619L558.762 265.889L558.682 265.758C558.682 265.758 529.211 270.797 519.886 271.066L549.276 245.945C549.276 245.945 504.317 242.144 482.898 255.685C463.46 268.024 467.91 279.97 467.672 289.551C467.623 291.108 467.958 292.702 468.663 294.161L464.617 309.379C463.177 314.746 465.877 320.386 470.87 322.657C472.738 323.501 474.552 324.107 475.888 324.374C478.178 324.871 481.13 325.416 484.583 325.746C494.877 326.776 509.718 326.215 527.095 319.71C533.345 317.354 538.681 314.384 543.157 311.039C544.662 309.945 546.061 308.826 547.42 307.642C551.366 304.168 554.636 300.475 557.193 296.946C558.103 295.765 558.84 294.599 559.578 293.432C565.386 284.244 566.993 276.619 566.993 276.619Z" fill="#E7D1CA"/>
<path d="M461.183 297.174L467.997 312.269C469.674 315.924 472.961 318.512 476.906 319.353C486.277 321.393 504.986 323.335 528.072 314.624C561.439 302.008 568.036 271.492 568.036 271.492L559.66 260.671C559.66 260.671 530.188 265.71 520.863 265.979L550.254 240.859C550.254 240.859 505.294 237.057 483.875 250.598C464.437 262.937 460.391 282.917 460.152 292.498C460.143 294.121 460.478 295.715 461.183 297.174Z" fill="#E65126"/>
<path d="M559.74 260.802C559.182 269.408 556.439 277.544 549.604 283.849C538.441 294.041 525.433 301.937 510.561 305.573C492.464 309.998 470.733 310.968 460.718 296.108C460.852 296.477 460.879 296.82 461.078 297.148L467.892 312.243C469.569 315.898 472.856 318.486 476.801 319.327C486.172 321.367 504.881 323.309 527.967 314.597C561.334 301.981 567.931 271.466 567.931 271.466L559.74 260.802Z" fill="#D93300"/>
<path d="M484.929 278.086C486.882 280.855 485.359 285.194 481.689 287.782C477.952 290.41 473.401 290.207 471.489 287.503C469.537 284.734 471.059 280.395 474.73 277.807C478.4 275.22 482.977 275.317 484.929 278.086Z" fill="#EA8D70"/>
<path d="M509.859 256.483C511.612 259.372 509.838 263.595 505.902 265.894C502.007 268.259 497.468 267.779 495.714 264.889C493.96 262 495.734 257.778 499.67 255.478C503.566 253.113 508.105 253.594 509.859 256.483Z" fill="#EA8D70"/>
<path d="M520.553 282.882C521.87 285.947 519.553 289.87 515.338 291.709C511.189 293.509 506.742 292.434 505.384 289.304C504.066 286.24 506.384 282.317 510.598 280.478C514.747 278.678 519.195 279.753 520.553 282.882Z" fill="#EA8D70"/>
<path d="M547.804 273.888C549.122 276.953 546.805 280.876 542.59 282.715C538.441 284.515 533.994 283.44 532.636 280.31C531.318 277.246 533.636 273.323 537.85 271.483C542.105 269.709 546.553 270.784 547.804 273.888Z" fill="#EA8D70"/>
<path d="M389.49 327.035C389.753 326.426 389.91 325.791 390.067 325.157C390.119 324.945 390.132 324.668 390.184 324.457C390.327 323.651 390.299 322.859 390.27 322.068C390.283 321.791 390.229 321.554 390.176 321.317C390.095 320.737 390.014 320.157 389.867 319.617C389.733 319.249 389.706 318.906 389.573 318.537C389.426 317.997 389.213 317.498 388.934 317.038C388.641 316.407 388.388 315.841 388.029 315.25C387.79 314.856 387.551 314.462 387.312 314.068C387.033 313.609 386.688 313.189 386.303 312.704C386.077 312.481 385.878 312.153 385.653 311.93C384.312 310.318 382.747 308.931 380.945 307.599C380.759 307.442 380.574 307.285 380.322 307.168C379.699 306.738 379.076 306.307 378.453 305.876C373.286 302.722 366.997 300.699 360.463 300.801C338.479 301.205 332.266 312.705 332.682 319.642C333.098 326.579 322.035 339.765 315.083 332.033C310.983 327.512 313.713 324.417 316.618 322.653C315.987 324.294 315.835 326.723 320.637 326.594C327.885 326.328 332.072 314.171 319.125 310.707C306.854 307.462 278.046 322.972 275.132 341.097C275.002 342.074 275.402 343.179 274.889 344.12C266.289 358.237 277.277 370.978 319.444 374.498C332.411 375.613 343.817 371.925 352.444 368.125C354.849 367.025 357.107 365.834 359.048 364.566C361.98 362.696 364.342 360.633 366.043 358.522C368.311 355.708 369.321 352.758 368.956 349.924C368.834 348.83 368.62 347.882 368.406 346.933C367.87 344.562 367.256 342.509 366.392 340.787C367.277 340.609 368.163 340.43 369.115 340.212C372.948 339.233 377.257 337.696 382.223 334.861C383.385 334.246 384.23 333.553 385.18 332.886C385.405 332.66 385.669 332.5 385.827 332.314C386.474 331.742 387.08 331.104 387.621 330.506C387.713 330.36 387.911 330.24 388.004 330.094C388.531 329.325 389.058 328.556 389.413 327.801C389.28 327.432 389.438 327.246 389.49 327.035ZM346.336 344.963C348.393 342.546 351.01 341.946 354.383 341.696C355.14 342.944 355.144 344.29 354.248 345.642C353.057 345.466 351.906 345.356 350.821 345.206C350.715 345.181 350.609 345.155 350.437 345.17C348.109 345.055 346.336 344.963 346.336 344.963ZM298.97 321.864C298.269 322.199 297.609 322.6 296.949 323C296.883 323.041 296.817 323.081 296.751 323.121C296.156 323.481 295.562 323.842 295.008 324.269C294.876 324.349 294.744 324.429 294.611 324.509C294.123 324.895 293.595 325.216 293.106 325.602C292.908 325.723 292.75 325.909 292.618 325.989C292.196 326.335 291.773 326.681 291.351 327.028C291.285 327.068 291.193 327.213 291.127 327.254C294.582 323.269 300.024 320.325 305.193 319.164C303.237 319.813 301.096 320.752 298.97 321.864Z" fill="#E7D1CA"/>
<path d="M320.909 310.073C320.909 310.073 308.326 313.757 315.347 322.346C322.394 330.829 333.335 316.55 332.864 308.927C332.394 301.304 338.524 288.776 360.522 288.543C382.519 288.31 402.365 314.007 382.596 326.098C362.786 338.123 352.815 329.437 346.91 336.977C346.91 336.977 360.047 337.629 359.961 340.018C359.762 344.901 344.189 353.186 327.928 352.003C320.268 351.442 309.207 350.787 295.023 344.39C262.998 330.04 310.196 295.997 320.909 310.073Z" fill="#EAC086"/>
<path d="M351.262 337.3C351.157 337.274 350.985 337.289 350.879 337.263C340.821 345.256 323.931 346.162 314.057 339.126C309.431 335.823 308.158 329.856 308.739 324.56C309.447 317.391 314.607 312.641 320.644 309.785C309.536 296.398 263.21 330.091 294.983 344.324C309.167 350.721 320.228 351.376 327.889 351.938C341.503 352.93 354.517 347.276 358.605 342.548C355.824 341.54 353.319 339.646 351.262 337.3Z" fill="#D59D63"/>
<path d="M378.593 294.198C378.527 294.238 378.395 294.319 378.329 294.359C380.827 298.324 381.241 304.813 378.99 308.696C374.065 316.808 367.972 318.978 358.794 319.787C343.229 321.238 345.147 330.947 341.062 341.784C345.409 339.864 346.803 336.951 346.803 336.951C352.749 329.478 362.72 338.163 382.49 326.072C396.422 317.615 390.746 302.458 378.593 294.198Z" fill="#DA9F59"/>
<path d="M317.511 310.429C317.511 310.429 313.572 316.594 320.794 316.434C328.082 316.233 332.173 302.876 319.16 299.003C306.212 295.091 271.461 309.446 271.983 331.146C272.505 352.846 290.181 368.717 319.932 368.9C349.682 369.083 370.835 354.805 369.227 342.481C367.579 330.091 362.973 323.99 353.862 325.207C353.862 325.207 348.897 328.491 353.059 331.626C357.221 334.761 355.993 340.18 346.251 343.038C336.51 345.895 307.038 355.698 292.024 336.324C277.103 316.805 309.892 300.855 317.511 310.429Z" fill="#F6E4CA"/>
<path d="M335.523 357.818C318.425 360.019 302.528 361.221 288.093 350.393C279.292 343.784 270.649 336.988 272.5 326.788C272.199 328.229 272.005 329.695 272.088 331.172C272.61 352.872 290.286 368.743 320.037 368.926C349.787 369.109 370.94 354.831 369.332 342.507C369.022 340.358 368.633 338.527 368.179 336.736C365.421 349.015 349.5 355.983 335.523 357.818Z" fill="#F6E4CA"/>
</svg>
