<svg width="1017" height="969" viewBox="0 0 1017 969" fill="none" xmlns="http://www.w3.org/2000/svg">
<g clip-path="url(#clip0_112_1263)">
<path d="M956.949 484.412C937.263 485.875 917.747 488.469 899.011 493.879C860.223 505.087 826.26 526.629 792.19 547.825C761.142 567.186 733.209 590.825 701.568 609.21C672.722 625.898 640.151 636.108 607.555 642.529C570.285 649.937 531.678 655.483 493.757 657.22C455.442 658.99 420.295 651.331 382.615 647.164C346.344 643.273 309.714 641.347 273.234 638.816C244.294 665.226 214.914 697.043 206.386 727.615C206.386 727.615 207.418 756.394 219.474 754.114C231.454 751.879 301.065 716.511 407.525 735.886C407.525 735.886 430.414 738.339 473.647 725.255C516.804 712.217 616.662 713.392 642.831 714.265C669.075 715.092 700.852 713.281 789.38 666.328C877.907 619.374 890.378 586.1 936.661 570.548C982.944 554.996 1012.96 535.13 981.376 501.662C981.331 501.587 971.141 494.509 956.949 484.412Z" fill="#EC9936"/>
<path opacity="0.55" d="M881.586 575.193C880.483 559.412 883.146 531.269 895.75 518.992C911.734 503.428 938.942 491.025 964.666 489.803C962.27 488.07 959.753 486.308 957.024 484.366C937.339 485.829 917.823 488.423 899.086 493.833C860.298 505.041 826.335 526.583 792.266 547.779C761.218 567.14 733.284 590.779 701.643 609.164C672.798 625.852 640.227 636.062 607.631 642.483C570.36 649.891 531.753 655.437 493.832 657.174C455.518 658.944 420.371 651.285 382.691 647.118C346.343 643.273 309.714 641.347 273.234 638.816C244.294 665.226 214.914 697.043 206.386 727.615C206.386 727.615 206.843 739.778 210.481 747.646C210.557 747.6 210.678 747.629 210.754 747.583C224.267 747.194 236.751 735.4 248.024 729.277C259.298 723.153 270.256 718.043 282.702 714.703C300.154 710.073 319.837 707.583 336.911 714.081C344.955 717.114 347.773 723.629 347.064 730.125C356.931 730.201 367.391 730.741 378.29 731.836C386.49 714.006 412.98 721.881 428.548 719.937C446.506 717.672 462.584 714.184 479.989 708.964C489.773 706.007 498.545 703.767 508.807 704.323C514.967 704.593 519.931 710.216 522.246 715.391C522.489 715.963 522.733 716.535 523.022 717.182C532.887 716.231 543.177 715.64 553.391 715.095C553.645 713.81 553.974 712.479 554.591 711.281C559.511 700.481 572.608 697.363 583.241 700.573C591.193 702.943 598.62 707.174 603.315 713.886C620.734 713.799 635.172 714.082 642.997 714.369C648.476 714.539 654.228 714.646 660.643 714.145C671.331 698.712 685.572 698.498 703.052 693.233C723.466 687.01 738.196 666.142 757.753 656.635C770.177 650.533 779.632 660.318 780.539 671.18C783.471 669.709 786.509 668.07 789.546 666.432C799.082 661.363 807.68 656.452 815.582 651.758C811.877 647.016 810.135 641.082 812.038 634.169C814.121 626.53 823.254 623.351 827.249 617.841C832.632 610.359 839.803 603.949 847.913 608.794C853.233 611.938 857.196 616.422 861.279 620.934C870.461 613.921 878.268 607.537 885.562 601.67C883.596 590.937 882.28 585.875 881.586 575.193Z" fill="#DB8C36"/>
<path d="M790.013 632.117C800.068 623.135 813.96 617.067 824.792 610.388C848.301 595.809 863.12 574.578 881.955 555.023C908.168 527.698 933.457 494.251 976.988 501.755C979.077 502.132 981.016 502.6 982.803 503.16C982.363 502.605 981.892 502.171 981.406 501.541C981.406 501.541 880.968 431.627 871.502 417.736C862.081 403.92 788.536 355.826 720.532 364.72C707.522 366.449 696.944 366.907 689.059 366.861C675.59 366.812 662.311 370.144 650.707 377.085C632.682 387.924 610.803 406.551 612.374 433.152C612.374 433.152 563.81 489.569 542.106 499.968C520.372 510.489 466.679 522.519 441.205 526.879C415.686 531.163 354.012 563.769 336.541 583.525C319.236 603.386 224.549 666.931 206.791 726.238C206.942 726.147 207.093 726.055 207.29 726.038C242.069 715.208 277.716 700.869 314.799 702.519C356.135 704.364 392.613 717.281 434.615 708.131C436.99 707.615 439.048 707.599 440.971 707.872C470.541 701.745 499.985 693.536 529.371 686.596C557.896 679.768 582.44 684.095 611.244 685.733C672.228 689.12 733.347 663.945 785.221 634.101C786.807 633.138 788.425 632.567 790.013 632.117Z" fill="#FAC64C"/>
<path opacity="0.55" d="M981.331 501.587C981.331 501.587 880.893 431.673 871.426 417.782C862.006 403.966 788.46 355.873 720.457 364.766C707.446 366.495 696.869 366.953 688.984 366.907C675.514 366.858 662.235 370.19 650.631 377.131C632.606 387.97 610.727 406.598 612.298 433.198C612.298 433.198 612.117 433.411 611.936 433.624C636.145 442.678 668.038 450.256 702.372 454.192C739.311 458.5 783.191 471.858 807.963 487.973C833.145 504.251 873.428 552.899 877.442 559.51C878.86 557.93 880.324 556.424 881.742 554.843C907.956 527.519 933.245 494.072 976.775 501.576C978.865 501.953 980.803 502.421 982.591 502.981C982.287 502.651 981.847 502.096 981.331 501.587Z" fill="#C2664C"/>
<path d="M981.331 501.587C981.331 501.587 880.893 431.673 871.427 417.782C862.006 403.966 788.46 355.872 720.457 364.766C707.446 366.495 696.869 366.953 688.984 366.907C675.514 366.858 662.236 370.19 650.631 377.131C634.872 386.594 616.073 402.119 612.726 423.685C623.043 427.396 633.102 431.365 644.335 432.668C661.714 434.559 679.227 435.649 696.502 438.22C724.436 442.34 750.965 447.724 776.996 458.757C803.965 470.146 829.867 478.584 850.915 499.633C865.818 514.645 877.141 532.447 884.564 551.999C909.796 525.27 934.849 494.331 976.896 501.605C978.986 501.982 980.924 502.45 982.712 503.01C982.287 502.651 981.847 502.096 981.331 501.587Z" fill="#F89945"/>
<path d="M885.831 472.166C869.886 468.891 854.019 466.596 840.553 456.675C819.52 441.272 802.248 422.866 777.175 413.41C752.875 404.205 728.48 410.172 703.499 412.279C672.467 414.975 649.371 408.946 627.436 395.632C620.178 403.431 614.513 412.833 612.817 423.835C623.134 427.546 633.194 431.515 644.427 432.819C661.806 434.709 679.319 435.799 696.594 438.37C724.527 442.491 751.057 447.874 777.087 458.908C804.056 470.296 829.958 478.734 851.007 499.783C865.909 514.795 877.232 532.597 884.656 552.149C896.743 539.363 908.723 525.716 922.573 515.663C912.025 499.139 905.077 476.111 885.831 472.166Z" fill="#E2762E"/>
<path d="M921.566 551.643C925.534 552.73 930.763 549.762 934.618 548.449C938.897 546.983 942.964 545.337 947.045 543.374C951.654 541.089 962.702 535.617 962.473 529.278C962.135 521.567 950.227 522.73 945.355 523.219C937.654 523.987 931.108 526.316 924.612 530.773C919.809 534.101 912.818 540.297 913.441 546.602C914.11 553.496 924.473 551.832 929.265 549.849L921.566 551.643Z" fill="#B15631"/>
<path opacity="0.55" d="M706.884 399.12C712.467 398.61 719.568 399.749 726.033 400.862C734.104 402.235 741.639 401.876 749.825 401.225C750.823 400.825 752.242 399.757 752.361 398.76C754.113 397.388 754.422 394.322 753.63 392.335C754.692 382.334 743.224 378.089 733.716 376.561C726.978 375.51 720.379 375.198 713.372 375.236C707.909 375.262 698.661 375.015 694.327 378.263C691.768 377.966 685.026 380.825 684.231 383.261C681.571 384.67 680.801 390.895 682.216 393.737C683.875 397.151 688.463 398.067 692.006 398.795C700.94 400.569 706.884 399.12 706.884 399.12Z" fill="#F89945"/>
<path opacity="0.55" d="M778.785 404.311C783.131 405.168 791.574 410.222 795.481 405.588C799.524 400.666 792.987 395.689 788.913 394.256C785.201 392.911 774.391 391.453 772.816 396.522C770.805 402.575 774.187 405.251 778.785 404.311Z" fill="#F89945"/>
<path opacity="0.55" d="M855.146 441.545C859.494 442.916 889.038 466.21 889.407 451.489C889.542 445.752 881.779 440.286 878.257 436.358C873.597 431.065 868.183 427.256 861.714 424.603C856.76 422.573 853.508 423.518 848.699 424.793C844.011 426.096 837.911 425.584 840.215 432.616C843.42 442.494 847.952 439.229 855.146 441.545Z" fill="#F89945"/>
<path opacity="0.55" d="M927.854 476.165C931.829 479.818 936.238 487.423 932.392 492.327C922.831 504.506 904.881 476.641 901.032 469.108C900.241 467.634 899.708 466.416 899.839 464.588C902.108 464.239 905.451 463.444 907.619 464.801C910.287 466.471 922.801 471.418 927.854 476.165Z" fill="#F89945"/>
<path d="M831.06 533.174C826.211 530.977 824.314 529.044 822.834 524.391C821.49 519.963 823.306 514.439 818.637 511.516C818.379 500.363 793.141 491.316 783.436 489.805C769.522 487.661 759.14 493.038 746.195 496.578C735.185 499.56 729.289 496.148 728.065 485.787C727.551 485.791 727.066 485.674 726.551 485.678C726.868 485.177 727.109 484.722 727.425 484.222C727.015 483.546 726.47 483.671 726.03 483.115C725.959 479.251 723.05 472.586 719.383 470.803C715.254 460.766 698.147 458.812 688.489 457.889C681.904 457.26 673.9 457.698 667.275 459.047C659.561 460.645 655.84 467.119 649.021 469.51C638.74 473.181 637.56 450.97 626.167 446.679C615.911 442.726 599.556 444.737 589.305 448.287C574.578 453.32 564.451 463.374 556.511 476.522C548.435 489.958 536.303 497.22 520.657 492.735C506.799 488.809 496.951 490.469 487.038 501.73C476.975 513.082 466.922 517.129 451.366 517.73C438.927 518.186 426.496 516.273 413.755 516.913C395.098 517.855 385.941 523.208 373.962 536.854C361.982 550.5 352.642 566.451 340.981 580.11C330.692 592.114 316.912 594.618 302.617 597.127C281.606 600.834 269.281 609.652 257.509 627.388C252.098 635.505 251.453 643.299 249.178 652.494C246.287 663.399 248.267 673.815 241.831 683.48C239.422 688.026 223.853 694.907 215.04 698.612C210.444 700.579 205.592 702.805 201.864 706.199C199.946 707.98 198.816 709.694 198.021 712.131C197.164 714.296 195.731 716.193 194.996 718.388C193.554 722.656 192.982 729.377 195.325 733.918C196.679 736.489 200.435 737.397 203.16 737.799C206.96 738.268 210.861 737.031 214.399 735.706C221.006 733.135 227.322 729.404 233.137 725.359C248.484 714.706 258.594 703.429 276.979 697.1C300.839 688.889 338.842 689.672 351.625 715.327C364.849 742.051 328.873 774.583 353.711 797.958C364.544 808.14 383.31 802.609 385.22 786.85C387.205 771.045 371.401 764.086 366.553 750.99C361.766 738.165 362.974 720.57 375.653 713.696C388.181 706.914 399.951 710.976 412.997 711.179C429.055 711.404 446.835 704.929 462.564 701.036C471.729 698.762 480.969 696.443 490.027 693.823C496.727 691.916 505.372 687.593 512.425 688.144C524.581 689.093 534.946 705.317 529.015 716.834C522.496 729.428 509.131 740.111 518.481 755.513C528.058 771.29 561.293 765.92 562.799 746.602C563.853 733.522 544.429 725.367 541.971 711.951C538.882 694.6 558.958 692.077 571.85 691.346C584.743 690.614 597.541 694.155 607.175 703.214C615.657 711.226 625.488 720.268 622.613 731.37C619.633 743.152 605.723 764.859 617.191 774.553C626.065 782.018 642.461 778.543 650.218 770.544C659.212 761.177 645.232 740.361 643.145 729.599C640.167 714.134 647.585 709.323 661.226 700.117C672.193 692.637 686.49 691.155 698.382 684.347C710.576 677.356 718.945 666.107 731.718 660.41C743.841 655.005 755.033 646.874 767.006 642.073C777.86 637.644 795.618 639.818 794.842 654.889C794.341 665.475 775.765 685.285 796.455 685.988C810.274 686.442 821.669 674.898 814.017 660.42C807.947 648.888 800.75 640.096 806.237 626.484C811.393 613.69 821.523 610.111 830.003 600.748C835.284 594.972 849.254 573.023 857.817 589.004C860.89 594.747 855.217 601.07 857.729 606.742C860.531 613.06 867.139 611.002 871.85 607.012C883.583 597.217 875.771 585.2 870.839 574.52C868.387 569.119 866.327 562.659 866.386 556.454C866.429 550.054 868.972 544.706 862.135 540.425C857.178 537.368 849.75 538.587 844.465 537.374C839.861 536.262 835.543 534.257 830.862 532.677C827.741 531.282 834.469 534.703 831.06 533.174Z" fill="#FBDF6A"/>
<path opacity="0.55" d="M566.156 567.518C537.126 549.669 512.031 526.553 484.887 506.531C475.274 522.032 457.98 529.137 433.183 526.608C417.091 524.964 402.804 524.589 391.169 537.101C394.305 538.179 397.441 539.257 400.592 540.531C466.512 567.036 524.808 600.226 598.98 594.682C606.772 594.064 613.928 592.908 620.901 591.451C601.605 585.892 583.15 577.971 566.156 567.518Z" fill="#ECBC49"/>
<path opacity="0.55" d="M784.707 523.065C763.838 506.739 748.148 513.591 723.501 510.457C711.617 508.932 702.814 505.331 694.301 496.927C675.848 478.621 669.941 471.103 644.076 481.971C631.469 487.26 617.116 485.074 605.176 479.881C597.251 476.364 592.607 465.818 584.669 463.13C579.458 461.359 574.174 460.659 568.832 460.715C564.123 465.219 560.066 470.457 556.541 476.401C555.139 478.691 553.526 480.802 551.897 482.716C551.928 483.108 552.08 483.53 552.233 483.951C562.697 491.993 577.5 498.326 584.819 501.697C608.019 512.496 631.743 521.433 656.429 528.039C702.364 540.355 745.635 530.23 791.425 527.829C789.211 526.397 786.906 524.814 784.707 523.065Z" fill="#ECBC49"/>
<path opacity="0.55" d="M358.749 769.812C353.707 768.658 349.871 766.257 346.7 763.247C343.495 775.679 342.786 787.625 353.619 797.807C364.453 807.99 383.219 802.459 385.128 786.7C386.285 777.875 381.758 771.781 376.809 765.841C371.552 769.443 365.367 771.347 358.749 769.812Z" fill="#ECBC49"/>
<path opacity="0.55" d="M537.058 736.216C531.053 737.394 524.703 734.257 520.847 729.607C515.889 737.448 512.369 745.445 518.435 755.438C528.012 771.215 561.247 765.845 562.753 746.527C563.338 738.975 557.208 733.135 551.365 726.914C548.639 731.962 542.397 735.134 537.058 736.216Z" fill="#ECBC49"/>
<path opacity="0.55" d="M635.458 746.911C629.134 747.563 623.193 744.589 619.639 739.755C614.919 751.565 608.165 766.667 617.251 774.311C626.125 781.776 642.52 778.301 650.278 770.302C656.676 763.642 651.482 751.167 647.155 740.634C644.304 744.112 640.179 746.513 635.458 746.911Z" fill="#ECBC49"/>
<path opacity="0.55" d="M813.377 658.855C809.544 662.929 803.981 665.175 797.758 664.121C796.032 663.832 794.35 663.105 792.744 662.332C788.307 672.736 780.199 685.266 796.561 685.821C810.379 686.275 821.774 674.731 814.122 660.253C813.924 659.756 813.651 659.305 813.377 658.855Z" fill="#ECBC49"/>
<path opacity="0.55" d="M422.586 697.852C412.248 697.342 402.446 699.077 392.628 700.615C385.628 703.22 379.993 707.051 377.073 712.629C379.838 711.053 382.515 710.353 385.087 710.334C394.224 708.694 403.159 710.981 412.951 711.103C428.495 711.333 445.791 705.254 461.157 701.273C448.23 700.586 435.467 698.464 422.586 697.852Z" fill="#F2CC49"/>
<path opacity="0.55" d="M230.216 719.524C221.863 720.071 213.867 718.139 208.521 711.206C206.835 708.939 205.799 706.381 205.186 703.668C204.023 704.477 202.936 705.24 201.864 706.199C199.947 707.98 198.816 709.694 198.021 712.131C197.164 714.296 195.731 716.193 194.996 718.388C193.554 722.656 192.982 729.377 195.325 733.918C196.679 736.489 200.435 737.397 203.16 737.799C206.96 738.268 210.861 737.031 214.399 735.706C221.006 733.135 227.322 729.404 233.137 725.359C237.231 722.566 240.84 719.655 244.419 716.866C239.58 718.261 234.664 719.189 230.216 719.524Z" fill="#ECBC49"/>
<path opacity="0.55" d="M358.407 599.451C337.437 618.041 283.857 621.573 275.032 648.932C271.611 659.645 269.685 669.245 265.367 678.652C281.535 674.801 297.707 667.04 313.805 665.287C326.287 663.879 338.245 664.845 350.735 666.517C366.904 668.628 380.362 664.571 396.265 663.348C424.212 661.189 451.898 669.16 479.705 665.749C503.821 662.728 521.683 647.362 545.067 642.626C576.483 636.304 606.477 680.094 636.192 660.411C662.221 643.171 688.108 623.652 716.859 611.237C744.356 599.481 790.744 606.073 810.182 580.188C814.766 574.115 818.457 567.762 822.602 561.647C803.869 562.635 785.352 565.341 767.325 570.218C732.558 579.705 705.051 598.768 672.794 613.413C644.438 626.308 612.927 630.94 581.884 630.044C514.563 628.139 462.954 605.284 402.272 579.404C393.378 575.652 384.577 572.564 375.731 569.914C374.472 579.932 369.097 589.981 358.407 599.451Z" fill="#ECBC49"/>
<path opacity="0.55" d="M715.636 651.46C696.039 662.945 650.265 704.2 650.441 707.897C653.37 705.4 657.011 702.881 661.331 699.95C672.298 692.47 686.596 690.988 698.488 684.181C710.682 677.189 719.051 665.94 731.823 660.243C743.946 654.838 755.138 646.707 767.112 641.907C772.1 639.906 778.425 639.255 783.801 640.618C783.785 640.421 783.77 640.225 783.754 640.029C783.552 637.993 736.669 639.103 715.636 651.46Z" fill="#F2CC49"/>
<path opacity="0.55" d="M861.498 589.957C860.439 590.086 859.364 590.019 858.289 589.951C860.15 595.402 855.505 601.203 857.835 606.575C860.637 612.893 867.245 610.836 871.956 606.845C880.94 599.335 878.374 590.508 874.521 581.949C871.658 586.257 866.884 589.464 861.498 589.957Z" fill="#ECBC49"/>
<path d="M297.854 654.51C297.854 654.51 257.884 665.304 251.746 678.695C245.608 692.086 259.548 703.98 279.699 690C299.804 675.945 303.465 652.852 297.854 654.51Z" fill="#14B661"/>
<path d="M410.328 547.884L411.498 560.54L456.213 564.035L459.37 545.052C459.416 545.127 421.101 541.448 410.328 547.884Z" fill="#14B661"/>
<path d="M573.858 483.47L583.696 495.079L616.02 477.308C616.02 477.308 610.684 463.069 606.457 461.214L573.858 483.47Z" fill="#FF3E4A"/>
<path d="M619.595 567.671L620.998 582.755C620.998 582.755 666.641 582.5 666.503 581.761C666.441 580.977 668.403 556.96 668.403 556.96L619.595 567.671Z" fill="#14B661"/>
<path d="M705.961 488.204L696.99 500.846C696.99 500.846 712.008 519.284 720.416 522.406L733.454 508.63C733.575 508.66 706.273 491.613 705.961 488.204Z" fill="#FF3E4A"/>
<path d="M394.678 664.311L396.299 681.628L435.889 681.449L448.45 653.261C448.45 653.261 411.932 659.184 394.678 664.311Z" fill="#FF3E4A"/>
<path d="M680.249 633.358C680.249 633.358 660.509 625.703 641.171 632.507C621.833 639.311 619.102 631.407 613.942 637.212C608.782 643.018 606.349 666.6 637.219 659.889C668.09 653.179 657.112 645.655 667.23 642.906C677.438 640.308 686.237 636.92 680.249 633.358Z" fill="#14B661"/>
<path d="M798.087 595.858C798.087 595.858 807.685 563.813 831.247 557.325C854.808 550.836 856.458 573.481 838.122 581.425C819.983 589.352 795.172 603.488 798.087 595.858Z" fill="#14B661"/>
<path d="M678.33 500.761C670.554 479.778 642.558 480.322 625.407 484.256C606.425 488.582 580.798 503.419 579.994 525.086C579.443 539.506 596.188 547.334 608.39 548.872C622.076 550.64 645.067 551.386 656.728 543.177C667.589 535.864 686.03 521.791 678.33 500.761Z" fill="#766974"/>
<path opacity="0.65" d="M678.33 500.761C670.554 479.778 642.558 480.322 625.407 484.256C606.425 488.582 580.798 503.419 579.994 525.086C579.443 539.506 596.188 547.334 608.39 548.872C622.076 550.64 645.067 551.386 656.728 543.177C667.589 535.864 686.03 521.791 678.33 500.761ZM648.934 520.97C641.362 524.847 635.072 526.917 620.7 528.959C611.185 530.314 601.219 527.522 597.911 518.837C594.405 509.655 599.282 499.806 608.171 496.056C620.355 490.922 632.452 487.177 645.615 485.869C668.4 483.553 669.291 510.566 648.934 520.97Z" fill="#6C5F66"/>
<path d="M646.085 497.202C644.448 496.55 642.814 496.412 641.043 496.561C637.548 496.935 633.482 498.581 630.414 500.34C628.178 501.595 625.504 503.321 624.891 506.058C624.322 508.356 625.281 510.447 627.388 511.533C630.282 513.066 634.352 512.446 637.468 511.789C640.311 511.194 643.002 510.177 645.45 508.588C647.142 507.459 649.045 505.995 650.084 504.13C650.49 503.267 649.524 498.61 646.085 497.202Z" fill="#AAA2A9"/>
<path d="M478.893 561.885C478.893 561.885 501.904 525.709 521.241 518.392C540.578 511.075 563.481 524.109 549.404 540.262C535.449 556.445 471.506 572.538 478.893 561.885Z" fill="#14B661"/>
<path d="M315.693 652.729L327.042 668.87L454.028 612.039L453.726 595.361C453.726 595.361 420.574 570.042 378.497 585.2C336.496 600.312 314.173 628.256 315.693 652.729Z" fill="#D12424"/>
<path d="M315.693 652.729L453.726 595.361C453.726 595.361 420.574 570.042 378.497 585.2C336.496 600.312 314.173 628.256 315.693 652.729Z" fill="#EA3333"/>
<path d="M350.174 627.273C354.381 626.879 367.857 629.494 369.173 629.107C370.488 628.719 358.509 620.055 358.509 620.055C358.509 620.055 368.346 608.84 392.796 606.541C392.796 606.541 386.996 616.231 393.779 617.357C400.608 618.558 402.206 605.353 401.99 603.634C401.864 602.065 418.974 599.595 426.847 606.434L453.604 595.332C453.604 595.332 420.453 570.012 378.376 585.17C336.496 600.311 314.173 628.256 315.693 652.729L342.873 641.473C344.282 636.3 347.224 627.522 350.174 627.273Z" fill="#C91D1D"/>
<path d="M367.474 605.36C389.422 595.532 415.266 588.377 435.903 602.788L453.65 595.407C453.65 595.407 420.498 570.088 378.421 585.245C336.496 600.312 314.173 628.256 315.693 652.729L328.572 647.378C330.193 625.523 348.428 613.837 367.474 605.36Z" fill="#FF3333"/>
<path d="M355.895 632.951C355.944 634.052 354.796 635.057 353.223 635.19C351.649 635.323 350.239 634.533 350.191 633.432C350.143 632.33 351.29 631.325 352.864 631.193C354.437 631.06 355.801 631.774 355.895 632.951Z" fill="#FF7E70"/>
<path d="M372.779 619.72C372.843 621.018 371.636 622.265 369.941 622.368C368.292 622.547 366.791 621.607 366.727 620.31C366.663 619.012 367.87 617.765 369.565 617.661C371.26 617.558 372.67 618.347 372.779 619.72Z" fill="#FF7E70"/>
<path d="M384.158 618.879C384.313 620.327 382.955 621.666 381.184 621.815C379.414 621.964 377.868 620.95 377.712 619.502C377.557 618.054 378.916 616.715 380.686 616.566C382.486 616.296 384.078 617.385 384.158 618.879Z" fill="#FF7E70"/>
<path d="M411.913 607.377C411.961 608.479 410.935 609.513 409.437 609.6C407.984 609.762 406.696 609.002 406.602 607.825C406.553 606.724 407.58 605.689 409.078 605.602C410.53 605.44 411.789 606.322 411.913 607.377Z" fill="#FF7E70"/>
<path d="M801.995 569.427L792.579 557.15L792.488 557C792.488 557 758.769 562.766 748.101 563.073L781.726 534.333C781.726 534.333 730.289 529.984 705.784 545.476C683.545 559.593 688.637 573.261 688.364 584.222C688.308 586.004 688.691 587.827 689.498 589.497L684.869 606.906C683.221 613.047 686.311 619.5 692.023 622.098C694.16 623.063 696.235 623.757 697.764 624.062C700.384 624.631 703.761 625.254 707.712 625.632C719.489 626.811 736.468 626.169 756.349 618.727C763.5 616.031 769.605 612.633 774.725 608.806C776.447 607.555 778.047 606.275 779.602 604.919C784.117 600.945 787.859 596.72 790.784 592.683C791.824 591.332 792.668 589.997 793.512 588.662C800.157 578.151 801.995 569.427 801.995 569.427Z" fill="#E7D1CA"/>
<path d="M680.941 592.943L688.736 610.213C690.654 614.395 694.416 617.355 698.928 618.317C709.649 620.651 731.055 622.874 757.467 612.907C795.641 598.473 803.189 563.561 803.189 563.561L793.606 551.18C793.606 551.18 759.888 556.946 749.219 557.253L782.844 528.514C782.844 528.514 731.407 524.164 706.902 539.656C684.663 553.773 680.034 576.632 679.761 587.593C679.751 589.45 680.134 591.274 680.941 592.943Z" fill="#E65126"/>
<path d="M793.698 551.33C793.059 561.177 789.921 570.484 782.101 577.699C769.33 589.359 754.447 598.393 737.433 602.552C716.728 607.615 691.866 608.725 680.408 591.724C680.561 592.146 680.592 592.538 680.82 592.913L688.616 610.184C690.534 614.365 694.295 617.326 698.808 618.288C709.529 620.622 730.935 622.844 757.347 612.877C795.521 598.443 803.069 563.531 803.069 563.531L793.698 551.33Z" fill="#D93300"/>
<path d="M708.108 571.105C710.341 574.273 708.599 579.238 704.4 582.198C700.125 585.204 694.919 584.972 692.731 581.879C690.498 578.711 692.24 573.747 696.439 570.786C700.638 567.826 705.875 567.937 708.108 571.105Z" fill="#EA8D70"/>
<path d="M736.629 546.389C738.636 549.695 736.606 554.526 732.103 557.156C727.646 559.862 722.453 559.313 720.447 556.007C718.44 552.701 720.47 547.87 724.973 545.24C729.43 542.534 734.622 543.084 736.629 546.389Z" fill="#EA8D70"/>
<path d="M748.864 576.592C750.372 580.098 747.72 584.586 742.898 586.691C738.152 588.75 733.063 587.52 731.51 583.94C730.002 580.434 732.654 575.946 737.476 573.841C742.222 571.782 747.31 573.012 748.864 576.592Z" fill="#EA8D70"/>
<path d="M780.042 566.302C781.55 569.808 778.899 574.296 774.077 576.401C769.33 578.46 764.242 577.23 762.688 573.65C761.181 570.144 763.832 565.656 768.654 563.551C773.522 561.521 778.61 562.751 780.042 566.302Z" fill="#EA8D70"/>
<path d="M598.917 627.107C599.218 626.41 599.397 625.684 599.577 624.958C599.637 624.716 599.651 624.399 599.711 624.157C599.875 623.235 599.842 622.33 599.81 621.424C599.824 621.107 599.763 620.836 599.701 620.564C599.609 619.901 599.516 619.237 599.348 618.62C599.195 618.198 599.164 617.806 599.012 617.385C598.843 616.767 598.6 616.195 598.28 615.669C597.946 614.947 597.656 614.3 597.246 613.624C596.972 613.173 596.699 612.723 596.425 612.272C596.106 611.746 595.711 611.266 595.27 610.711C595.013 610.456 594.784 610.08 594.527 609.826C592.993 607.981 591.203 606.394 589.14 604.87C588.928 604.691 588.716 604.511 588.428 604.377C587.715 603.885 587.003 603.392 586.29 602.899C580.378 599.291 573.183 596.976 565.707 597.093C540.555 597.555 533.448 610.712 533.924 618.648C534.399 626.585 521.743 641.67 513.788 632.825C509.098 627.652 512.221 624.111 515.545 622.094C514.824 623.971 514.65 626.75 520.143 626.602C528.436 626.298 533.225 612.389 518.414 608.426C504.374 604.713 471.415 622.459 468.082 643.195C467.933 644.313 468.391 645.577 467.803 646.654C457.965 662.805 470.535 677.382 518.778 681.408C533.613 682.684 546.663 678.464 556.533 674.118C559.284 672.859 561.868 671.496 564.089 670.045C567.443 667.906 570.146 665.546 572.091 663.131C574.686 659.911 575.842 656.536 575.424 653.294C575.285 652.042 575.04 650.957 574.795 649.872C574.182 647.16 573.479 644.81 572.49 642.84C573.504 642.636 574.517 642.432 575.606 642.182C579.992 641.062 584.921 639.304 590.602 636.061C591.932 635.356 592.899 634.564 593.986 633.801C594.243 633.542 594.545 633.359 594.726 633.146C595.466 632.492 596.16 631.762 596.779 631.078C596.884 630.911 597.111 630.773 597.216 630.606C597.819 629.726 598.422 628.846 598.829 627.983C598.676 627.561 598.857 627.349 598.917 627.107ZM549.545 647.618C551.898 644.853 554.893 644.166 558.751 643.88C559.618 645.308 559.622 646.847 558.597 648.395C557.235 648.194 555.918 648.068 554.676 647.896C554.555 647.867 554.434 647.838 554.237 647.854C551.573 647.724 549.545 647.618 549.545 647.618ZM495.354 621.19C494.553 621.574 493.797 622.032 493.042 622.491C492.966 622.537 492.891 622.583 492.815 622.628C492.135 623.041 491.455 623.454 490.821 623.942C490.67 624.033 490.519 624.125 490.368 624.217C489.809 624.659 489.205 625.026 488.646 625.468C488.419 625.605 488.238 625.818 488.087 625.91C487.604 626.306 487.121 626.702 486.637 627.098C486.562 627.144 486.456 627.311 486.381 627.357C490.334 622.798 496.56 619.43 502.474 618.102C500.236 618.844 497.787 619.919 495.354 621.19Z" fill="#E7D1CA"/>
<path d="M520.455 607.701C520.455 607.701 506.059 611.916 514.091 621.742C522.154 631.448 534.671 615.11 534.132 606.389C533.594 597.669 540.607 583.335 565.775 583.069C590.942 582.802 613.647 612.202 591.029 626.034C568.365 639.792 556.958 629.855 550.201 638.481C550.201 638.481 565.231 639.227 565.133 641.96C564.906 647.547 547.088 657.026 528.485 655.673C519.721 655.03 507.067 654.28 490.838 646.962C454.199 630.544 508.198 591.597 520.455 607.701Z" fill="#EAC086"/>
<path d="M555.181 638.85C555.06 638.821 554.863 638.838 554.742 638.808C543.235 647.953 523.912 648.99 512.615 640.939C507.323 637.161 505.866 630.333 506.531 624.275C507.341 616.072 513.244 610.639 520.151 607.371C507.442 592.055 454.442 630.603 490.793 646.887C507.021 654.205 519.675 654.955 528.439 655.598C544.015 656.732 558.905 650.264 563.582 644.855C560.4 643.702 557.534 641.534 555.181 638.85Z" fill="#D59D63"/>
<path d="M586.45 589.539C586.375 589.585 586.224 589.676 586.148 589.722C589.006 594.259 589.48 601.682 586.904 606.125C581.269 615.406 574.299 617.889 563.799 618.814C545.99 620.474 548.185 631.582 543.512 643.981C548.485 641.784 550.08 638.451 550.08 638.451C556.882 629.901 568.29 639.838 590.908 626.005C606.848 616.329 600.354 598.988 586.45 589.539Z" fill="#DA9F59"/>
<path d="M516.566 608.108C516.566 608.108 512.06 615.161 520.323 614.978C528.661 614.748 533.342 599.467 518.453 595.036C503.64 590.56 463.882 606.983 464.479 631.81C465.076 656.637 485.299 674.794 519.336 675.004C553.373 675.213 577.573 658.878 575.734 644.778C573.849 630.603 568.579 623.623 558.155 625.016C558.155 625.016 552.475 628.772 557.237 632.359C561.999 635.946 560.593 642.145 549.448 645.415C538.303 648.685 504.585 659.9 487.408 637.734C470.337 615.402 507.85 597.154 516.566 608.108Z" fill="#F6E4CA"/>
<path d="M537.174 662.325C517.612 664.843 499.425 666.219 482.91 653.83C472.841 646.269 462.952 638.494 465.07 626.825C464.726 628.473 464.504 630.15 464.599 631.84C465.196 656.667 485.419 674.824 519.456 675.033C553.493 675.243 577.694 658.908 575.854 644.808C575.5 642.35 575.055 640.255 574.535 638.206C571.38 652.253 553.165 660.226 537.174 662.325Z" fill="#F6E4CA"/>
</g>
<g clip-path="url(#clip1_112_1263)">
<path d="M399.487 282.453L417.058 277.143L429.66 185.892L416.543 173.519C416.543 173.519 366.63 169.047 357.94 213.529C349.626 255.941 373.358 280.699 399.487 282.453Z" fill="#D12424"/>
<path d="M399.487 282.453L416.543 173.519C416.543 173.519 366.63 169.047 357.94 213.529C349.626 255.941 373.358 280.699 399.487 282.453Z" fill="#EA3333"/>
<path d="M392.949 254.245C394.762 251.304 404.144 243.391 404.464 242.402C404.802 241.443 390.055 246.169 390.055 246.169C390.055 246.169 383.341 234.763 395.003 217.098C395.003 217.098 401.563 225.836 406.114 222.236C410.501 218.779 399.017 210.477 397.172 209.505C395.462 208.618 402.466 196.375 412.907 196.481L416.524 173.489C416.524 173.489 366.611 169.017 357.921 213.498C349.638 255.892 373.358 280.699 399.468 282.423L402.557 262.765C398.656 260.614 391.678 256.356 392.949 254.245Z" fill="#C91D1D"/>
<path d="M373.059 228.578C374.907 207.497 387.938 190.089 414.113 188.886L416.524 173.489C416.524 173.489 366.611 169.017 357.921 213.498C349.638 255.892 373.358 280.699 399.468 282.423L400.923 273.171C379.764 268.023 371.566 245.97 373.059 228.578Z" fill="#FF3333"/>
<path d="M401.348 252.159C402.399 252.442 402.742 253.489 402.091 254.554C401.44 255.618 400.051 256.294 398.97 256.03C397.858 255.784 397.497 254.706 398.178 253.623C398.86 252.54 400.267 251.895 401.348 252.159Z" fill="#FF7E70"/>
<path d="M397.446 236.494C398.816 236.959 399.308 238.251 398.584 239.402C397.86 240.553 396.176 241.156 394.775 240.71C393.374 240.263 392.834 238.959 393.57 237.759C394.343 236.62 396.076 236.029 397.446 236.494Z" fill="#FF7E70"/>
<path d="M402.615 228.879C404.059 229.467 404.576 230.869 403.87 232.05C403.134 233.25 401.364 233.781 399.889 233.212C398.383 232.661 397.799 231.217 398.566 229.998C399.333 228.78 401.17 228.292 402.615 228.879Z" fill="#FF7E70"/>
<path d="M406.176 205.796C407.272 206.429 407.615 207.684 407.019 208.632C406.392 209.598 405.02 209.888 403.894 209.274C402.768 208.66 402.357 207.362 403.014 206.377C403.66 205.441 405.081 205.164 406.176 205.796Z" fill="#FF7E70"/>
</g>
<g clip-path="url(#clip2_112_1263)">
<path d="M341.755 426.181L342.843 444.506L428.676 477.944L443.755 468.056C443.755 468.056 459.691 420.545 418.442 401.767C379.118 383.836 349.527 401.173 341.755 426.181Z" fill="#D12424"/>
<path d="M341.755 426.181L443.755 468.056C443.755 468.056 459.691 420.545 418.442 401.767C379.118 383.836 349.527 401.173 341.755 426.181Z" fill="#EA3333"/>
<path d="M370.711 426.37C373.151 428.816 378.67 439.777 379.558 440.318C380.412 440.87 379.238 425.429 379.238 425.429C379.238 425.429 391.891 421.546 406.367 436.99C406.367 436.99 396.345 441.342 398.79 446.604C401.135 451.674 411.875 442.431 413.249 440.862C414.509 439.405 424.792 449.059 422.265 459.19L443.789 468.045C443.789 468.045 459.725 420.534 418.476 401.756C379.163 383.859 349.527 401.173 341.789 426.17L360.193 433.737C363.191 430.442 368.953 424.643 370.711 426.37Z" fill="#C91D1D"/>
<path d="M400.294 412.98C420.37 419.671 434.278 436.387 429.372 462.126L443.789 468.045C443.789 468.045 459.725 420.534 418.476 401.756C379.163 383.859 349.527 401.173 341.789 426.17L350.451 429.733C360.37 410.347 383.724 407.491 400.294 412.98Z" fill="#FF3333"/>
<path d="M370.79 435.024C370.271 435.98 369.173 436.07 368.289 435.19C367.404 434.31 367.069 432.802 367.577 431.812C368.074 430.788 369.207 430.686 370.102 431.601C370.997 432.515 371.298 434.034 370.79 435.024Z" fill="#FF7E70"/>
<path d="M386.933 434.864C386.163 436.089 384.792 436.267 383.841 435.295C382.89 434.324 382.693 432.546 383.453 431.287C384.213 430.028 385.606 429.805 386.603 430.8C387.531 431.816 387.704 433.639 386.933 434.864Z" fill="#FF7E70"/>
<path d="M393.141 441.659C392.234 442.928 390.75 443.105 389.765 442.144C388.768 441.15 388.663 439.305 389.559 438.002C390.444 436.665 391.985 436.433 392.992 437.461C393.999 438.49 394.047 440.39 393.141 441.659Z" fill="#FF7E70"/>
<path d="M414.766 450.481C413.897 451.4 412.596 451.443 411.812 450.643C411.018 449.809 411.055 448.407 411.914 447.454C412.772 446.502 414.13 446.403 414.936 447.271C415.696 448.116 415.636 449.563 414.766 450.481Z" fill="#FF7E70"/>
</g>
<g clip-path="url(#clip3_112_1263)">
<path d="M547.005 365.243C538.682 355.943 528.556 361.044 523.27 366.052C517.477 371.536 511.975 383.495 517.313 394.564C520.891 401.974 529.067 403.036 533.937 401.754C539.401 400.278 548.044 396.663 550.172 390.518C552.308 384.87 555.328 374.542 547.005 365.243Z" fill="#766974"/>
<path opacity="0.65" d="M547.005 365.243C538.682 355.943 528.556 361.044 523.27 366.052C517.477 371.536 511.975 383.495 517.313 394.564C520.891 401.974 529.067 403.036 533.937 401.754C539.401 400.278 548.044 396.663 550.172 390.518C552.308 384.87 555.328 374.542 547.005 365.243ZM541.551 380.521C539.783 383.812 538.033 385.962 533.297 389.464C530.169 391.823 525.797 392.134 522.286 388.282C518.597 384.203 517.831 378.392 520.101 374.963C523.212 370.23 526.688 366.237 531.151 363.319C538.903 358.236 546.272 371.755 541.551 380.521Z" fill="#6C5F66"/>
<path d="M534.284 369.032C533.523 368.95 532.868 369.18 532.275 369.582C531.089 370.386 530.023 371.87 529.356 373.321C528.864 374.372 528.332 375.7 528.805 377.17C529.198 378.437 530.074 379.328 531.167 379.544C532.616 379.794 533.96 378.769 534.919 377.936C535.817 377.14 536.523 376.167 537.001 374.956C537.316 374.095 537.66 373.008 537.538 371.911C537.474 371.322 535.929 369.122 534.284 369.032Z" fill="#AAA2A9"/>
</g>
<g clip-path="url(#clip4_112_1263)">
<path d="M523.955 103.093C513.89 110.473 517.982 121.047 522.452 126.795C527.346 133.094 538.714 139.733 550.25 135.496C557.973 132.656 559.825 124.622 559.022 119.65C558.084 114.068 555.327 105.115 549.418 102.4C544.004 99.7243 534.02 95.7142 523.955 103.093Z" fill="#766974"/>
<path opacity="0.65" d="M523.955 103.093C513.89 110.473 517.982 121.047 522.452 126.795C527.346 133.094 538.714 139.733 550.25 135.496C557.973 132.656 559.825 124.622 559.022 119.65C558.084 114.068 555.327 105.115 549.418 102.4C544.004 99.7243 534.02 95.7142 523.955 103.093ZM538.63 110.008C541.733 112.087 543.703 114.038 546.728 119.092C548.772 122.435 548.656 126.817 544.48 129.936C540.062 133.211 534.204 133.408 531.013 130.815C526.604 127.259 522.968 123.411 520.498 118.686C516.193 110.476 530.365 104.456 538.63 110.008Z" fill="#6C5F66"/>
<path d="M526.489 116.123C526.333 116.872 526.499 117.547 526.841 118.176C527.525 119.434 528.899 120.639 530.278 121.445C531.277 122.036 532.546 122.696 534.055 122.367C535.355 122.099 536.327 121.314 536.648 120.248C537.038 118.83 536.148 117.392 535.412 116.357C534.707 115.386 533.808 114.588 532.649 113.994C531.823 113.598 530.774 113.15 529.67 113.164C529.078 113.171 526.738 114.495 526.489 116.123Z" fill="#AAA2A9"/>
</g>
<g clip-path="url(#clip5_112_1263)">
<path d="M262.586 346.963C265.99 347.952 269.907 348.754 272.541 344.477C274.75 340.877 275.194 336.715 276.893 332.965C280.835 324.295 288.142 317.307 297.784 315.89C305.648 314.714 312.174 318.159 315.448 325C318.003 330.311 317.925 337.765 318.097 343.769C315.928 340.818 312.688 338.099 308.734 337.444C304.406 336.724 300.684 339.485 297.3 342.251C293.085 345.647 290.264 348.238 284.668 349.082C280.482 349.699 276.855 348.343 272.742 350.045C268.873 351.599 262.316 352.86 262.586 346.963Z" fill="#81BE00"/>
<path opacity="0.32" d="M295.351 329.459C284.359 337.889 277.59 348.106 264.68 350.964C266.875 351.891 270.318 351.015 272.742 350.045C276.874 348.374 280.482 349.699 284.668 349.082C290.264 348.237 293.104 345.677 297.3 342.251C300.672 339.534 304.375 336.743 308.734 337.444C312.688 338.098 315.929 340.818 318.097 343.769C318.022 341.095 317.97 338.114 317.727 335.165C314.804 329.659 305.524 321.61 295.351 329.459Z" fill="#589B22"/>
<path d="M281.235 339.911C281.235 339.911 283.749 344.535 292.997 343.985L294.103 343.188C294.103 343.188 285.998 343.002 281.235 339.911Z" fill="#659333"/>
<path d="M286.46 329.081C286.46 329.081 295.864 336.093 302.981 337.547L304.833 336.256C304.814 336.225 291.886 332.022 286.46 329.081Z" fill="#659333"/>
<path d="M299.271 321.096C299.271 321.096 309.955 327.874 309.68 336.451L311.05 336.917C311.069 336.947 311.579 324.001 299.271 321.096Z" fill="#659333"/>
</g>
<defs>
<clipPath id="clip0_112_1263">
<rect width="794.05" height="354.103" fill="white" transform="translate(154.052 665.926) rotate(-31.2592)"/>
</clipPath>
<clipPath id="clip1_112_1263">
<rect width="94.821" height="100.973" fill="white" transform="translate(333.273 209.84) rotate(-31.2592)"/>
</clipPath>
<clipPath id="clip2_112_1263">
<rect width="94.821" height="100.973" fill="white" transform="translate(427.755 378.631) rotate(72.1626)"/>
</clipPath>
<clipPath id="clip3_112_1263">
<rect width="41.0974" height="38.1645" fill="white" transform="translate(505.912 375.92) rotate(-31.2592)"/>
</clipPath>
<clipPath id="clip4_112_1263">
<rect width="41.0974" height="38.1645" fill="white" transform="translate(530.585 145.03) rotate(-115.678)"/>
</clipPath>
<clipPath id="clip5_112_1263">
<rect width="57.6223" height="36.2688" fill="white" transform="translate(256.501 338.732) rotate(-31.2592)"/>
</clipPath>
</defs>
</svg>
